{"glyphs":{"0":{"ha":833,"x_min":135,"x_max":699,"o":"m 135 421 q 136 475 135 447 q 140 532 138 503 q 214 754 154 653 q 417 856 274 856 q 619 754 560 856 q 693 532 679 653 q 697 475 696 503 q 699 421 699 447 q 697 360 699 392 q 692 299 696 329 q 617 80 676 179 q 417 -19 558 -19 q 216 80 275 -19 q 142 299 157 179 q 136 360 138 329 q 135 421 135 392 l 135 421 m 264 421 q 290 211 264 279 q 349 119 317 143 q 386 99 368 103 q 417 96 404 96 q 447 99 429 96 q 485 119 465 103 q 543 211 517 143 q 569 421 569 279 q 568 483 569 447 q 560 557 567 518 q 517 682 549 625 q 417 739 485 739 q 317 682 349 739 q 274 557 285 625 q 265 483 267 518 q 264 421 264 447 l 264 421 z "},"1":{"ha":833,"x_min":126,"x_max":735,"o":"m 126 729 l 424 856 l 501 856 l 501 117 l 735 117 l 735 0 l 143 0 l 143 117 l 376 117 l 376 707 l 176 621 l 126 729 l 126 729 z "},"2":{"ha":833,"x_min":99,"x_max":679,"o":"m 557 244 l 678 244 l 678 0 l 99 0 l 99 110 q 320 301 222 213 q 490 458 418 389 q 536 521 522 489 q 550 594 550 553 q 515 684 550 649 q 439 732 481 719 q 417 737 428 735 q 394 739 406 739 q 297 713 339 739 q 247 656 256 686 q 247 648 247 651 q 246 642 246 644 l 246 601 l 125 601 l 125 724 q 245 820 178 785 q 393 856 313 856 q 593 781 507 856 q 679 589 679 707 q 675 547 679 569 q 663 499 671 524 q 635 440 651 468 q 596 390 618 411 q 453 260 529 329 q 290 117 378 192 l 557 117 l 557 244 l 557 244 z "},"3":{"ha":833,"x_min":101,"x_max":682,"o":"m 179 653 l 115 753 q 238 822 186 799 q 336 853 289 846 q 357 855 346 854 q 379 856 368 856 q 383 856 381 856 q 388 856 385 856 q 561 794 482 853 q 640 631 640 735 q 621 535 640 581 q 561 457 601 490 q 650 367 618 422 q 682 243 682 313 q 590 51 682 121 q 383 -19 499 -19 q 366 -19 375 -19 q 349 -18 357 -19 q 249 1 303 -15 q 101 56 196 17 l 150 165 q 231 131 189 147 q 314 107 272 115 q 350 102 332 104 q 386 100 368 100 q 503 137 454 100 q 553 244 553 174 q 503 353 553 322 q 383 385 453 385 l 313 385 l 313 501 l 367 501 q 468 535 425 501 q 511 625 511 569 q 472 710 511 681 q 379 739 432 739 q 372 739 375 739 q 365 739 368 739 q 282 713 325 735 q 179 653 239 690 l 179 653 z "},"4":{"ha":833,"x_min":88,"x_max":690,"o":"m 88 299 l 431 856 l 569 856 l 569 306 l 690 306 l 690 189 l 569 189 l 569 117 l 690 117 l 690 0 l 265 0 l 265 117 l 444 117 l 444 189 l 88 189 l 88 299 l 88 299 m 444 306 l 444 692 l 442 692 l 232 306 l 444 306 l 444 306 z "},"5":{"ha":833,"x_min":111,"x_max":710,"o":"m 165 835 l 671 835 l 671 718 l 286 718 l 286 528 q 336 544 310 538 q 390 554 363 551 q 403 555 397 554 q 417 556 410 556 q 625 475 540 556 q 710 265 710 394 q 708 234 710 250 q 703 201 706 218 q 610 49 683 118 q 401 -19 538 -19 q 340 -17 368 -19 q 285 -7 313 -14 q 206 15 247 0 q 111 49 165 29 l 156 161 q 203 142 179 151 q 249 125 226 132 q 318 107 283 114 q 390 100 353 100 q 526 139 472 100 q 581 265 581 178 q 531 389 581 343 q 408 435 482 435 q 317 417 361 435 q 232 367 272 400 l 165 403 l 165 835 l 165 835 z "},"6":{"ha":833,"x_min":139,"x_max":710,"o":"m 710 856 l 710 739 l 608 739 q 389 684 464 739 q 282 485 314 629 q 358 521 317 508 q 442 533 399 533 q 627 449 553 533 q 701 257 701 365 q 626 63 701 144 q 436 -19 551 -19 q 231 74 324 -19 q 139 363 139 168 q 145 458 139 403 q 171 569 151 513 q 298 766 206 676 q 576 856 390 856 l 710 856 l 710 856 m 572 249 q 537 363 572 313 q 438 413 501 413 q 342 384 388 413 q 272 296 297 356 q 318 158 276 219 q 436 96 360 96 q 536 142 500 96 q 572 249 572 189 l 572 249 z "},"7":{"ha":833,"x_min":90,"x_max":672,"o":"m 90 835 l 672 835 l 672 744 l 406 0 l 265 0 l 535 718 l 211 718 l 211 601 l 90 601 l 90 835 l 90 835 z "},"8":{"ha":833,"x_min":129,"x_max":704,"o":"m 704 233 q 702 202 704 218 q 694 171 700 186 q 604 40 674 99 q 417 -19 535 -19 q 229 40 299 -19 q 139 171 160 99 q 131 202 133 186 q 129 233 129 218 q 161 344 129 290 q 240 428 193 397 q 171 511 197 461 q 144 617 144 561 q 230 791 144 726 q 417 856 315 856 q 604 791 519 856 q 689 617 689 726 q 663 511 689 561 q 593 428 638 461 q 673 344 642 397 q 704 233 704 290 l 704 233 m 258 228 q 298 141 258 175 q 386 99 338 107 q 402 97 394 97 q 417 96 410 96 q 431 97 424 96 q 447 99 439 97 q 535 141 496 107 q 575 228 575 175 q 526 328 575 293 q 417 363 476 363 q 308 328 357 363 q 258 228 258 293 l 258 228 m 274 615 q 318 521 274 558 q 417 483 363 483 q 515 521 471 483 q 560 615 560 558 q 516 707 560 675 q 417 739 472 739 q 317 707 361 739 q 274 615 274 675 l 274 615 z "},"9":{"ha":833,"x_min":124,"x_max":694,"o":"m 124 -21 l 124 96 l 225 96 q 445 151 369 96 q 551 350 521 206 q 476 314 517 326 q 392 301 435 301 q 207 385 282 301 q 132 578 132 469 q 207 773 132 690 q 397 856 282 856 q 602 761 510 856 q 694 472 694 667 q 688 377 694 432 q 663 265 682 322 q 535 69 628 158 q 257 -19 443 -19 l 124 -21 l 124 -21 m 261 586 q 297 472 261 522 q 396 422 332 422 q 399 422 397 422 q 404 422 401 422 q 494 453 451 425 q 561 539 538 482 q 515 678 557 617 q 397 739 474 739 q 297 693 333 739 q 261 586 261 647 l 261 586 z "}," ":{"ha":833,"x_min":0,"x_max":0,"o":""},"!":{"ha":833,"x_min":294,"x_max":539,"o":"m 539 88 q 501 10 539 39 q 417 -19 463 -19 q 333 10 371 -19 q 294 88 294 39 q 333 165 294 136 q 417 194 371 194 q 501 165 463 194 q 539 88 539 136 l 539 88 m 503 794 l 476 271 l 357 271 l 331 794 l 503 794 l 503 794 z "},"\"":{"ha":833,"x_min":201,"x_max":632,"o":"m 226 413 l 201 781 l 376 781 l 351 413 l 226 413 l 226 413 m 482 413 l 457 781 l 632 781 l 607 413 l 482 413 l 482 413 z "},"#":{"ha":833,"x_min":92,"x_max":742,"o":"m 360 617 l 496 617 l 513 904 l 633 904 l 617 617 l 742 617 l 742 500 l 610 500 l 600 342 l 742 342 l 742 225 l 593 225 l 576 -62 l 456 -62 l 472 225 l 339 225 l 322 -62 l 201 -62 l 218 225 l 92 225 l 92 342 l 224 342 l 233 500 l 92 500 l 92 617 l 239 617 l 256 904 l 376 904 l 360 617 l 360 617 m 489 500 l 354 500 l 344 342 l 479 342 l 489 500 l 489 500 z "},"$":{"ha":833,"x_min":128,"x_max":707,"o":"m 357 925 l 482 925 l 482 767 q 499 763 488 767 q 522 754 510 760 q 526 752 524 753 q 529 751 528 751 q 547 744 539 747 q 561 738 556 740 q 566 753 564 746 q 569 771 568 761 q 572 782 571 776 q 574 793 572 788 l 696 774 q 694 769 694 771 q 692 764 693 767 q 689 756 690 760 q 686 749 688 753 q 671 699 678 724 q 664 651 664 674 q 666 623 664 639 q 672 590 668 607 q 676 572 674 581 q 681 554 678 563 l 564 533 l 551 592 q 524 624 547 611 q 475 643 501 636 q 444 649 460 647 q 418 650 429 650 q 397 649 408 650 q 375 646 386 649 q 305 619 336 640 q 274 556 274 599 q 285 511 274 528 q 332 481 297 494 q 376 464 350 472 q 439 446 403 456 q 444 444 442 444 q 450 443 447 443 q 630 374 553 414 q 707 229 707 333 q 706 208 707 219 q 701 186 704 197 q 638 84 689 132 q 482 18 586 36 l 482 -175 l 357 -175 l 357 18 q 335 20 351 18 q 300 28 318 22 q 274 35 286 31 q 253 43 261 39 l 235 0 l 128 33 q 145 85 139 61 q 151 129 151 110 q 145 183 151 151 q 131 249 139 214 l 244 271 l 264 196 q 303 153 271 171 q 408 135 336 135 q 441 136 422 135 q 479 142 460 138 q 547 168 517 149 q 578 225 578 188 q 544 284 578 265 q 460 317 511 303 q 435 322 447 319 q 408 329 422 325 q 381 336 394 332 q 354 343 368 340 q 210 410 275 367 q 144 549 144 453 q 207 697 144 640 q 346 765 269 753 q 351 766 349 765 q 357 767 354 767 l 357 925 l 357 925 z "},"%":{"ha":833,"x_min":7,"x_max":826,"o":"m 826 172 q 762 33 826 86 q 615 -19 697 -19 q 469 33 533 -19 q 404 172 404 86 q 469 312 404 258 q 615 365 533 365 q 762 312 697 365 q 826 172 826 258 l 826 172 m 719 172 q 689 244 719 217 q 615 272 658 272 q 542 244 572 272 q 511 172 511 217 q 542 101 511 129 q 615 72 572 72 q 689 101 658 72 q 719 172 719 129 l 719 172 m 679 653 l 732 579 l 151 181 l 99 254 l 679 653 l 679 653 m 429 663 q 365 523 429 576 q 218 469 300 469 q 72 523 136 469 q 7 663 7 576 q 72 802 7 749 q 218 856 136 856 q 365 802 300 856 q 429 663 429 749 l 429 663 m 322 663 q 292 735 322 707 q 218 763 261 763 q 144 735 175 763 q 114 663 114 707 q 144 591 114 619 q 218 563 175 563 q 292 591 261 563 q 322 663 322 619 l 322 663 z "},"&":{"ha":833,"x_min":64,"x_max":744,"o":"m 574 664 l 499 569 q 428 617 456 603 q 375 636 400 632 q 361 637 368 636 q 347 638 354 638 q 335 636 342 638 q 321 633 328 635 q 288 615 303 628 q 272 582 272 601 q 284 543 272 567 q 324 479 296 519 l 468 272 l 522 418 l 719 418 l 719 301 l 611 301 l 546 161 l 579 117 l 744 117 l 744 0 l 513 0 l 468 63 q 388 -1 432 18 q 292 -19 343 -19 q 126 44 188 -19 q 64 192 64 107 q 105 335 64 275 q 211 426 146 396 q 167 499 188 461 q 147 579 147 536 q 209 708 147 661 q 347 754 271 754 q 429 742 390 754 q 506 710 468 731 q 540 688 522 700 q 574 664 557 676 l 574 664 m 279 331 q 219 281 244 313 q 193 196 193 249 q 221 124 193 153 q 292 96 249 96 q 351 112 325 96 q 399 160 376 128 l 279 331 l 279 331 z "},"'":{"ha":833,"x_min":329,"x_max":504,"o":"m 354 413 l 329 781 l 504 781 l 479 413 l 354 413 l 354 413 z "},"(":{"ha":833,"x_min":318,"x_max":626,"o":"m 626 -142 l 504 -142 q 424 -8 461 -81 q 360 140 386 64 q 329 251 340 196 q 318 357 318 307 q 329 463 318 407 q 360 574 340 518 q 424 723 386 650 q 504 856 461 796 l 626 856 q 586 783 606 819 q 549 711 567 747 q 479 538 507 625 q 451 357 451 450 q 479 176 451 264 q 549 3 507 89 q 586 -68 567 -32 q 626 -140 606 -104 l 626 -142 z "},")":{"ha":833,"x_min":207,"x_max":515,"o":"m 207 856 l 329 856 q 410 723 372 796 q 474 574 447 650 q 504 463 493 518 q 515 357 515 407 q 504 251 515 307 q 474 140 493 196 q 410 -8 447 64 q 329 -140 372 -81 l 207 -142 q 247 -68 228 -104 q 285 3 267 -32 q 354 176 326 89 q 382 357 382 264 q 354 538 382 450 q 285 711 326 625 q 247 783 267 747 q 207 856 228 819 l 207 856 z "},"*":{"ha":833,"x_min":126,"x_max":707,"o":"m 126 578 l 174 717 l 349 654 l 340 835 l 493 835 l 485 654 l 660 717 l 707 578 l 528 531 l 643 390 l 521 304 l 417 454 l 313 304 l 190 390 l 306 531 l 126 578 l 126 578 z "},"+":{"ha":833,"x_min":113,"x_max":721,"o":"m 354 610 l 479 610 l 479 367 l 721 367 l 721 242 l 479 242 l 479 0 l 354 0 l 354 242 l 113 242 l 113 367 l 354 367 l 354 610 l 354 610 z "},",":{"ha":833,"x_min":194,"x_max":519,"o":"m 315 228 l 519 228 l 349 -140 l 194 -140 l 315 228 l 315 228 z "},"-":{"ha":833,"x_min":153,"x_max":681,"o":"m 153 421 l 681 421 l 681 296 l 153 296 l 153 421 l 153 421 z "},".":{"ha":833,"x_min":286,"x_max":547,"o":"m 286 94 q 327 178 286 147 q 417 210 368 210 q 506 178 465 210 q 547 94 547 147 q 506 11 547 42 q 417 -19 465 -19 q 327 11 368 -19 q 286 94 286 42 l 286 94 z "},"/":{"ha":833,"x_min":146,"x_max":689,"o":"m 578 869 l 689 822 l 257 -107 l 146 -57 l 578 869 l 578 869 z "},":":{"ha":833,"x_min":286,"x_max":547,"o":"m 547 94 q 506 11 547 42 q 417 -19 465 -19 q 327 11 368 -19 q 286 94 286 42 q 327 178 286 147 q 417 210 368 210 q 506 178 465 210 q 547 94 547 147 l 547 94 m 547 447 q 506 363 547 394 q 417 332 465 332 q 327 363 368 332 q 286 447 286 394 q 327 531 286 500 q 417 563 368 563 q 506 531 465 563 q 547 447 547 500 l 547 447 z "},";":{"ha":833,"x_min":194,"x_max":547,"o":"m 519 228 l 349 -140 l 194 -140 l 315 228 l 519 228 l 519 228 m 547 447 q 506 363 547 394 q 417 332 465 332 q 327 363 368 332 q 286 447 286 394 q 327 531 286 500 q 417 563 368 563 q 506 531 465 563 q 547 447 547 500 l 547 447 z "},"<":{"ha":833,"x_min":92,"x_max":699,"o":"m 92 304 l 631 629 l 699 529 l 325 304 l 699 79 l 631 -21 l 92 304 l 92 304 z "},"=":{"ha":833,"x_min":113,"x_max":721,"o":"m 721 249 l 721 124 l 113 124 l 113 249 l 721 249 l 721 249 m 721 485 l 721 360 l 113 360 l 113 485 l 721 485 l 721 485 z "},">":{"ha":833,"x_min":135,"x_max":742,"o":"m 742 304 l 203 -21 l 135 79 l 508 304 l 135 529 l 203 629 l 742 304 l 742 304 z "},"?":{"ha":833,"x_min":150,"x_max":682,"o":"m 496 88 q 458 10 496 39 q 374 -19 419 -19 q 290 10 328 -19 q 251 88 251 39 q 290 165 251 136 q 374 194 328 194 q 458 165 419 194 q 496 88 496 136 l 496 88 m 439 349 l 439 271 l 314 271 l 314 440 q 491 492 429 463 q 553 569 553 521 q 513 654 553 626 q 424 688 472 682 q 410 688 417 688 q 396 689 403 689 q 334 682 364 689 q 275 664 304 675 l 275 572 l 150 572 l 150 753 q 248 784 206 772 q 331 801 290 796 q 363 805 347 804 q 396 806 379 806 q 607 733 532 806 q 682 567 682 661 q 606 424 682 475 q 439 349 531 372 l 439 349 z "},"@":{"ha":833,"x_min":36,"x_max":797,"o":"m 797 231 l 593 231 l 593 293 l 590 293 q 585 287 588 290 q 581 281 583 283 q 523 239 560 258 q 447 218 486 219 q 443 218 444 218 q 440 218 442 218 q 313 254 360 218 q 265 365 265 290 q 346 512 265 463 q 522 574 426 561 q 558 576 540 575 q 593 578 576 578 l 593 640 q 542 715 593 692 q 428 739 492 739 q 232 663 303 739 q 161 404 161 586 q 223 172 161 247 q 372 96 285 96 q 455 103 403 96 q 576 149 507 110 l 593 42 q 450 -11 500 -3 q 369 -19 400 -19 q 132 83 228 -19 q 36 404 36 186 q 134 744 36 632 q 433 856 232 856 q 647 803 576 856 q 718 664 718 751 l 718 347 l 797 347 l 797 231 l 797 231 m 390 371 q 403 332 390 343 q 442 321 417 321 q 532 365 490 321 q 593 475 574 410 q 481 455 528 475 q 411 411 435 435 q 396 390 401 400 q 390 371 390 379 l 390 371 z "},"A":{"ha":833,"x_min":1,"x_max":832,"o":"m 79 117 l 314 664 l 138 664 l 138 781 l 474 781 l 754 117 l 832 117 l 832 0 l 500 0 l 500 117 l 622 117 l 571 236 l 260 236 l 208 117 l 331 117 l 331 0 l 1 0 l 1 117 l 79 117 l 79 117 m 415 603 l 310 353 l 522 353 l 415 603 l 415 603 z "},"B":{"ha":833,"x_min":56,"x_max":782,"o":"m 167 117 l 167 664 l 56 664 l 56 781 l 486 781 q 663 719 590 781 q 735 568 735 658 q 716 482 735 521 q 661 414 697 443 q 750 338 718 388 q 782 224 782 288 q 708 67 782 133 q 496 0 635 0 l 56 0 l 56 117 l 167 117 l 167 117 m 292 347 l 292 117 l 494 117 q 523 118 507 117 q 554 124 539 119 q 622 156 592 132 q 653 228 653 179 q 653 235 653 232 q 651 242 653 239 q 601 315 647 282 q 421 347 554 347 l 292 347 l 292 347 m 292 664 l 292 464 l 471 464 q 566 493 532 464 q 604 557 600 522 q 606 563 606 560 q 606 568 606 565 q 574 633 606 611 q 504 661 543 656 q 489 663 497 663 q 474 664 481 664 l 292 664 l 292 664 z "},"C":{"ha":833,"x_min":44,"x_max":769,"o":"m 694 194 l 769 103 q 612 10 693 44 q 435 -24 531 -24 q 149 99 254 -24 q 44 397 44 222 q 151 686 44 567 q 431 806 257 806 q 537 790 488 806 q 633 744 586 775 l 640 792 l 760 767 q 758 761 758 764 q 757 756 757 758 q 744 688 749 721 q 739 631 739 654 q 739 620 739 625 q 739 611 739 615 q 747 555 740 583 q 764 492 753 526 l 639 465 l 629 540 q 590 625 622 593 q 519 672 557 657 q 476 685 497 681 q 440 689 456 689 q 248 606 318 689 q 178 400 178 524 q 240 186 178 276 q 433 96 303 96 q 455 97 444 96 q 476 99 465 97 q 574 126 524 104 q 694 194 625 149 l 694 194 z "},"D":{"ha":833,"x_min":56,"x_max":811,"o":"m 56 664 l 56 781 l 471 781 q 723 672 644 781 q 810 435 801 564 q 811 418 811 426 q 811 401 811 410 q 713 106 811 197 q 494 3 614 14 q 474 1 485 1 q 453 0 464 0 l 56 0 l 56 117 l 167 117 l 167 664 l 56 664 l 56 664 m 292 664 l 292 117 l 446 117 q 612 184 546 117 q 678 403 678 251 q 632 581 678 522 q 531 657 586 640 q 504 662 517 660 q 479 664 492 664 l 292 664 l 292 664 z "},"E":{"ha":833,"x_min":56,"x_max":757,"o":"m 565 558 l 565 253 l 449 253 l 449 347 l 292 347 l 292 117 l 632 117 l 640 293 l 757 293 l 757 0 l 56 0 l 56 117 l 167 117 l 167 664 l 56 664 l 56 781 l 743 781 l 751 489 l 632 489 l 621 664 l 292 664 l 292 464 l 449 464 l 449 558 l 565 558 l 565 558 z "},"F":{"ha":833,"x_min":75,"x_max":771,"o":"m 486 117 l 486 0 l 75 0 l 75 117 l 186 117 l 186 664 l 75 664 l 75 781 l 763 781 l 771 489 l 651 489 l 640 664 l 311 664 l 311 464 l 468 464 l 468 558 l 585 558 l 585 253 l 468 253 l 468 347 l 311 347 l 311 117 l 486 117 l 486 117 z "},"G":{"ha":833,"x_min":44,"x_max":811,"o":"m 622 132 l 622 257 l 424 257 l 424 374 l 811 374 l 811 257 l 747 257 l 747 50 l 743 49 q 596 -3 672 18 q 435 -24 519 -24 q 149 99 254 -24 q 44 397 44 222 q 151 686 44 567 q 431 806 257 806 q 537 790 488 806 q 633 744 586 775 l 640 792 l 760 767 q 758 761 758 764 q 757 756 757 758 q 744 688 749 721 q 739 631 739 654 q 739 620 739 625 q 739 611 739 615 q 747 555 740 583 q 764 492 753 526 l 639 465 l 629 540 q 590 625 622 593 q 519 672 557 657 q 476 685 497 681 q 440 689 456 689 q 248 606 318 689 q 178 400 178 524 q 240 186 178 276 q 433 96 303 96 q 535 107 490 96 q 622 132 581 118 l 622 132 z "},"H":{"ha":833,"x_min":42,"x_max":792,"o":"m 694 664 l 694 117 l 792 117 l 792 0 l 469 0 l 469 117 l 569 117 l 569 347 l 264 347 l 264 117 l 364 117 l 364 0 l 42 0 l 42 117 l 139 117 l 139 664 l 42 664 l 42 781 l 364 781 l 364 664 l 264 664 l 264 464 l 569 464 l 569 664 l 469 664 l 469 781 l 792 781 l 792 664 l 694 664 l 694 664 z "},"I":{"ha":833,"x_min":121,"x_max":713,"o":"m 479 664 l 479 117 l 713 117 l 713 0 l 121 0 l 121 117 l 354 117 l 354 664 l 121 664 l 121 781 l 713 781 l 713 664 l 479 664 l 479 664 z "},"J":{"ha":833,"x_min":65,"x_max":821,"o":"m 650 664 l 650 244 q 574 38 650 99 q 401 -24 499 -24 q 241 2 321 -24 q 82 64 161 28 l 65 393 l 190 393 q 195 273 192 322 q 203 188 199 224 q 265 120 208 144 q 389 96 321 96 q 506 146 486 96 q 525 272 525 196 l 525 664 l 264 664 l 264 781 l 821 781 l 821 664 l 650 664 l 650 664 z "},"K":{"ha":833,"x_min":50,"x_max":811,"o":"m 286 442 l 521 664 l 454 664 l 454 781 l 774 781 l 774 664 l 696 664 l 453 438 q 600 316 539 404 q 706 129 661 228 q 708 122 707 125 q 711 117 710 119 l 811 117 l 811 0 l 619 0 q 513 227 579 129 q 360 350 446 325 l 286 281 l 286 117 l 397 117 l 397 0 l 50 0 l 50 117 l 161 117 l 161 664 l 50 664 l 50 781 l 397 781 l 397 664 l 286 664 l 286 442 l 286 442 z "},"L":{"ha":833,"x_min":68,"x_max":789,"o":"m 789 375 l 769 0 l 68 0 l 68 117 l 200 117 l 200 664 l 68 664 l 68 781 l 490 781 l 490 664 l 325 664 l 325 117 l 650 117 l 667 379 l 789 375 l 789 375 z "},"M":{"ha":833,"x_min":4,"x_max":829,"o":"m 4 664 l 4 781 l 265 781 l 417 372 l 568 781 l 829 781 l 829 664 l 732 664 l 732 117 l 829 117 l 829 0 l 482 0 l 482 117 l 607 117 l 607 585 l 604 585 l 454 178 l 379 178 l 229 585 l 226 585 l 226 117 l 351 117 l 351 0 l 4 0 l 4 117 l 101 117 l 101 664 l 4 664 l 4 664 z "},"N":{"ha":833,"x_min":25,"x_max":833,"o":"m 611 208 l 611 664 l 472 664 l 472 781 l 833 781 l 833 664 l 736 664 l 736 -17 l 607 -17 l 250 565 l 247 565 l 247 117 l 392 117 l 392 0 l 25 0 l 25 117 l 122 117 l 122 664 l 25 664 l 25 781 l 258 781 l 608 208 l 611 208 l 611 208 z "},"O":{"ha":833,"x_min":44,"x_max":789,"o":"m 44 389 q 144 681 44 557 q 417 806 243 806 q 690 681 590 806 q 789 389 789 557 q 690 100 789 224 q 417 -24 590 -24 q 144 100 243 -24 q 44 389 44 224 l 44 389 m 178 389 q 178 378 178 383 q 178 367 178 372 q 244 178 185 264 q 417 92 304 92 q 589 178 529 92 q 656 367 649 264 q 656 378 656 372 q 656 389 656 383 q 656 397 656 393 q 656 404 656 400 q 592 600 651 511 q 417 689 532 689 q 242 600 303 689 q 178 404 182 511 q 178 397 178 400 q 178 389 178 393 l 178 389 z "},"P":{"ha":833,"x_min":81,"x_max":763,"o":"m 192 117 l 192 664 l 81 664 l 81 781 l 483 781 q 684 705 606 781 q 763 529 763 629 q 758 483 763 508 q 743 433 754 458 q 655 330 719 376 q 461 283 590 283 l 317 283 l 317 117 l 513 117 l 513 0 l 81 0 l 81 117 l 192 117 l 192 117 m 317 664 l 317 400 l 433 400 q 588 433 542 400 q 633 529 633 465 q 603 613 633 583 q 538 654 574 642 q 507 662 522 660 q 479 664 492 664 l 317 664 l 317 664 z "},"Q":{"ha":833,"x_min":44,"x_max":789,"o":"m 417 806 q 690 681 590 806 q 789 389 789 557 q 789 386 789 388 q 789 383 789 385 q 716 134 788 250 q 499 -6 644 18 l 499 -10 q 569 -35 543 -25 q 610 -46 594 -46 q 641 -39 621 -46 q 682 -19 661 -32 q 697 -10 689 -15 q 711 0 704 -6 l 789 -92 q 718 -136 750 -119 q 654 -158 686 -153 q 634 -162 644 -161 q 613 -162 624 -162 q 551 -154 578 -162 q 499 -135 524 -146 q 487 -129 493 -132 q 474 -125 481 -126 q 437 -112 456 -117 q 396 -107 418 -107 q 385 -107 390 -107 q 374 -108 379 -107 q 318 -122 349 -110 q 226 -169 288 -135 l 167 -74 q 190 -58 179 -65 q 210 -46 200 -51 q 223 -35 217 -40 q 235 -25 229 -31 q 252 -10 243 -18 q 271 7 261 -1 q 106 151 161 50 q 46 365 51 251 q 44 377 44 371 q 44 389 44 383 q 144 681 44 557 q 417 806 243 806 l 417 806 m 178 389 q 178 378 178 383 q 178 367 178 372 q 244 178 185 264 q 417 92 304 92 q 589 178 529 92 q 656 367 649 264 q 656 378 656 372 q 656 389 656 383 q 656 397 656 393 q 656 404 656 400 q 592 600 651 511 q 417 689 532 689 q 242 600 303 689 q 178 404 182 511 q 178 397 178 400 q 178 389 178 393 l 178 389 z "},"R":{"ha":833,"x_min":47,"x_max":818,"o":"m 721 117 l 818 117 l 818 0 l 635 0 q 603 71 618 38 q 572 135 588 104 q 492 260 533 210 q 397 331 451 311 l 283 331 l 283 117 l 403 117 l 403 0 l 47 0 l 47 117 l 158 117 l 158 664 l 47 664 l 47 781 l 476 781 q 614 746 565 781 q 685 669 663 711 q 709 603 704 635 q 714 563 714 572 q 674 435 714 488 q 588 363 635 383 q 577 359 582 361 q 567 356 572 357 q 619 299 593 338 q 669 217 646 260 q 697 163 685 189 q 721 117 710 138 l 721 117 m 283 664 l 283 447 l 428 447 q 541 477 497 447 q 585 561 585 507 q 583 581 585 569 q 578 604 582 592 q 544 645 568 626 q 471 664 521 664 l 283 664 l 283 664 z "},"S":{"ha":833,"x_min":79,"x_max":754,"o":"m 632 808 l 754 781 q 752 775 753 778 q 750 769 751 772 q 745 753 747 761 q 740 736 743 744 q 726 681 732 708 q 719 628 719 653 q 724 569 719 599 q 735 503 729 539 l 607 492 l 600 567 q 596 590 599 576 q 585 619 593 604 q 538 665 571 644 q 435 685 504 685 q 405 683 421 685 q 372 676 389 681 q 295 634 331 664 q 260 551 260 604 q 296 480 260 503 q 375 449 332 457 q 408 444 392 446 q 439 440 425 442 q 474 438 456 439 q 510 433 492 436 q 670 379 597 422 q 743 208 743 336 q 735 163 743 190 q 708 104 728 135 q 611 16 678 56 q 428 -24 544 -24 q 371 -19 400 -24 q 311 -7 342 -15 q 266 6 289 -1 q 222 25 243 14 l 218 -31 l 92 -12 q 95 5 93 -3 q 99 21 97 13 q 106 69 103 44 q 110 114 110 93 q 100 188 110 149 q 79 265 90 226 l 201 288 l 219 213 q 222 206 221 210 q 224 199 222 201 q 282 128 236 160 q 425 96 328 96 q 453 97 439 96 q 482 101 468 99 q 573 138 532 110 q 614 222 614 167 q 576 293 614 278 q 467 315 538 308 q 454 317 461 317 q 440 318 447 318 q 379 326 415 321 q 304 342 343 331 q 185 411 239 363 q 131 560 131 460 q 131 570 131 565 q 132 579 131 575 q 163 665 138 624 q 225 736 189 707 q 316 786 265 769 q 418 806 367 803 q 426 806 422 806 q 435 806 431 806 q 500 800 469 806 q 561 783 531 794 q 592 772 576 778 q 622 757 607 765 l 632 808 l 632 808 z "},"T":{"ha":833,"x_min":43,"x_max":790,"o":"m 194 0 l 194 117 l 354 117 l 354 664 l 188 664 l 168 410 l 43 425 l 71 781 l 763 781 l 790 425 l 665 410 l 646 664 l 479 664 l 479 117 l 639 117 l 639 0 l 194 0 l 194 0 z "},"U":{"ha":833,"x_min":19,"x_max":814,"o":"m 19 664 l 19 781 l 378 781 l 378 664 l 242 664 l 242 292 q 285 140 242 183 q 417 96 328 96 q 549 140 507 96 q 592 292 592 183 l 592 664 l 456 664 l 456 781 l 814 781 l 814 664 l 717 664 l 717 286 q 626 44 717 111 q 425 -24 535 -22 q 420 -24 422 -24 q 417 -24 418 -24 q 413 -24 415 -24 q 408 -24 411 -24 q 208 44 299 -22 q 117 286 117 111 l 117 664 l 19 664 l 19 664 z "},"V":{"ha":833,"x_min":-4,"x_max":838,"o":"m 422 172 l 619 664 l 497 664 l 497 781 l 838 781 l 838 664 l 746 664 l 481 0 l 358 0 l 96 664 l -4 664 l -4 781 l 340 781 l 340 664 l 226 664 l 422 172 l 422 172 z "},"W":{"ha":833,"x_min":-11,"x_max":844,"o":"m 844 781 l 844 664 l 779 664 l 681 0 l 568 0 l 418 444 l 415 444 l 265 0 l 153 0 l 54 664 l -11 664 l -11 781 l 307 781 l 307 664 l 175 664 l 233 242 l 236 242 l 381 649 l 453 649 l 597 242 l 600 242 l 658 664 l 526 664 l 526 781 l 844 781 l 844 781 z "},"X":{"ha":833,"x_min":31,"x_max":803,"o":"m 419 503 l 546 664 l 475 664 l 475 781 l 778 781 l 778 664 l 694 664 l 492 410 l 719 117 l 803 117 l 803 0 l 475 0 l 475 117 l 567 117 l 417 314 l 263 117 l 374 117 l 374 0 l 31 0 l 31 117 l 114 117 l 344 408 l 142 664 l 58 664 l 58 781 l 374 781 l 374 664 l 294 664 l 419 503 l 419 503 z "},"Y":{"ha":833,"x_min":31,"x_max":804,"o":"m 421 428 l 568 664 l 488 664 l 488 781 l 804 781 l 804 664 l 707 664 l 482 301 l 482 117 l 642 117 l 642 0 l 197 0 l 197 117 l 357 117 l 357 300 l 128 664 l 31 664 l 31 781 l 351 781 l 351 664 l 271 664 l 421 428 l 421 428 z "},"Z":{"ha":833,"x_min":100,"x_max":735,"o":"m 107 781 l 704 781 l 704 690 l 267 117 l 614 117 l 614 325 l 735 325 l 735 0 l 100 0 l 100 100 l 531 664 l 228 664 l 228 476 l 107 476 l 107 781 l 107 781 z "},"[":{"ha":833,"x_min":354,"x_max":646,"o":"m 479 735 l 479 -21 l 646 -21 l 646 -142 l 354 -142 l 354 856 l 646 856 l 646 735 l 479 735 l 479 735 z "},"\\":{"ha":833,"x_min":146,"x_max":689,"o":"m 146 822 l 257 869 l 689 -57 l 578 -107 l 146 822 l 146 822 z "},"]":{"ha":833,"x_min":188,"x_max":479,"o":"m 354 -21 l 354 735 l 188 735 l 188 856 l 479 856 l 479 -142 l 188 -142 l 188 -21 l 354 -21 l 354 -21 z "},"^":{"ha":833,"x_min":150,"x_max":683,"o":"m 250 346 l 150 414 l 417 856 l 683 414 l 583 346 l 417 622 l 250 346 l 250 346 z "},"_":{"ha":833,"x_min":0,"x_max":833,"o":"m 0 -104 l 833 -104 l 833 -174 l 0 -174 l 0 -104 l 0 -104 z "},"`":{"ha":833,"x_min":183,"x_max":549,"o":"m 415 706 l 183 918 l 371 918 l 549 706 l 415 706 l 415 706 z "},"a":{"ha":833,"x_min":63,"x_max":778,"o":"m 778 117 l 778 0 l 533 0 l 533 63 q 426 2 482 24 q 308 -19 371 -19 q 306 -19 307 -19 q 304 -19 306 -19 q 138 40 214 -18 q 63 194 63 97 q 147 349 63 285 q 365 414 232 414 q 407 413 382 414 q 458 410 432 413 q 498 407 478 408 q 533 403 518 406 q 533 412 533 407 q 533 422 533 417 q 510 485 532 457 q 399 514 488 514 q 325 506 367 514 q 240 483 283 497 q 199 469 219 476 q 158 451 178 461 l 110 561 q 258 612 185 593 q 397 631 332 631 q 411 631 404 631 q 425 629 418 631 q 585 581 513 625 q 658 419 658 536 l 658 117 l 778 117 l 778 117 m 533 214 l 533 286 q 522 287 528 286 q 508 289 515 288 q 444 294 475 292 q 394 297 413 297 q 271 279 313 297 q 211 239 229 261 q 195 208 199 222 q 192 186 192 193 q 218 129 192 151 q 276 100 244 107 q 293 97 285 97 q 308 96 301 96 q 338 98 322 96 q 368 106 353 100 q 460 149 415 119 q 533 214 504 179 l 533 214 z "},"b":{"ha":833,"x_min":14,"x_max":797,"o":"m 25 738 l 14 853 l 268 869 l 268 560 q 364 613 311 596 q 472 631 417 631 q 703 537 608 631 q 797 299 797 443 q 701 75 797 169 q 478 -19 606 -19 q 458 -19 468 -19 q 439 -17 449 -18 q 349 8 393 -11 q 268 61 304 26 l 268 0 l 32 0 l 32 117 l 143 117 l 143 746 l 25 738 l 25 738 m 263 306 q 325 157 263 218 q 472 96 388 96 q 611 157 554 96 q 668 303 668 218 q 613 455 668 396 q 472 514 558 514 q 326 457 390 514 q 263 306 263 400 l 263 306 z "},"c":{"ha":833,"x_min":69,"x_max":749,"o":"m 606 638 l 732 614 q 726 594 729 604 q 721 575 724 585 q 712 531 715 553 q 708 490 708 510 q 715 438 708 469 q 731 364 722 406 l 608 349 q 606 365 607 357 q 603 382 604 374 q 594 424 600 404 q 578 457 589 443 q 538 488 563 476 q 488 507 514 500 q 458 513 472 511 q 431 514 443 514 q 266 458 333 514 q 199 304 199 403 q 266 153 199 207 q 431 100 333 100 q 526 124 463 100 q 678 208 589 147 l 749 111 q 676 64 711 86 q 604 25 640 42 q 519 -8 563 4 q 431 -19 476 -19 q 177 67 285 -19 q 69 304 69 153 q 177 543 69 456 q 431 631 285 631 q 513 618 469 631 q 601 590 557 606 q 605 615 604 603 q 606 638 606 626 l 606 638 z "},"d":{"ha":833,"x_min":42,"x_max":807,"o":"m 807 117 l 807 0 l 571 0 l 571 61 q 490 8 535 26 q 400 -17 446 -11 q 381 -19 390 -18 q 361 -19 371 -19 q 138 75 233 -19 q 42 299 42 169 q 137 537 42 443 q 367 631 232 631 q 475 613 422 631 q 571 560 528 596 l 571 746 l 356 731 l 342 846 l 696 869 l 696 117 l 807 117 l 807 117 m 576 306 q 513 457 576 400 q 367 514 449 514 q 226 455 281 514 q 171 303 171 396 q 228 157 171 218 q 367 96 285 96 q 515 157 453 96 q 576 306 576 218 l 576 306 z "},"e":{"ha":833,"x_min":69,"x_max":768,"o":"m 711 189 l 768 83 q 690 46 731 64 q 607 13 649 28 q 516 -10 561 -1 q 431 -19 471 -19 q 177 67 285 -19 q 69 304 69 153 q 177 543 69 456 q 431 631 285 631 q 490 624 457 631 q 558 603 524 618 q 688 510 629 574 q 747 338 747 446 q 747 319 747 331 q 744 294 746 307 q 744 289 744 292 q 743 283 743 286 q 742 270 743 276 q 742 258 742 264 l 199 258 q 206 227 199 247 q 229 185 213 207 q 299 126 253 153 q 419 100 344 100 q 509 110 465 100 q 596 138 553 121 q 653 162 624 149 q 711 189 682 175 l 711 189 m 208 375 l 618 375 q 610 402 618 383 q 586 442 603 421 q 523 492 564 469 q 418 514 482 514 q 401 513 410 514 q 385 511 393 513 q 281 472 331 504 q 208 375 232 440 l 208 375 z "},"f":{"ha":833,"x_min":129,"x_max":746,"o":"m 746 847 l 694 729 q 581 746 635 739 q 494 753 526 753 q 409 732 425 753 q 393 650 393 711 l 393 610 l 678 610 l 678 493 l 393 493 l 393 117 l 678 117 l 678 0 l 129 0 l 129 117 l 268 117 l 268 493 l 129 493 l 129 610 l 268 610 l 268 668 q 332 825 268 781 q 511 869 396 869 q 586 865 524 869 q 721 850 649 860 q 733 849 726 850 q 746 847 739 849 l 746 847 z "},"g":{"ha":833,"x_min":56,"x_max":792,"o":"m 556 610 l 792 610 l 792 493 l 681 493 l 681 36 q 613 -134 681 -67 q 401 -201 546 -201 q 317 -196 360 -201 q 231 -182 274 -190 q 167 -167 199 -175 q 103 -151 135 -160 l 133 -36 q 305 -74 258 -67 q 383 -81 351 -81 q 385 -81 385 -81 q 386 -81 386 -81 q 523 -47 490 -81 q 556 76 556 -12 q 498 40 531 54 q 432 19 465 26 q 401 14 417 15 q 371 13 385 13 q 150 101 244 13 q 56 331 56 189 q 152 545 56 460 q 374 631 249 631 q 397 629 385 631 q 419 626 408 628 q 488 603 454 619 q 556 560 522 588 l 556 610 l 556 610 m 561 319 q 509 458 561 401 q 375 514 457 514 q 242 459 299 514 q 185 322 185 404 q 240 185 185 242 q 372 129 296 129 q 507 184 453 129 q 561 319 561 239 l 561 319 z "},"h":{"ha":833,"x_min":21,"x_max":808,"o":"m 703 414 l 703 117 l 808 117 l 808 0 l 458 0 l 458 117 l 578 117 l 578 401 q 555 489 578 468 q 478 510 532 510 q 370 485 422 510 q 275 424 318 460 l 275 117 l 386 117 l 386 0 l 39 0 l 39 117 l 150 117 l 150 746 l 32 738 l 21 853 l 275 869 l 275 565 q 341 601 307 586 q 410 624 375 617 q 440 629 425 628 q 469 631 454 631 q 644 578 585 631 q 703 414 703 525 l 703 414 z "},"i":{"ha":833,"x_min":121,"x_max":713,"o":"m 158 610 l 479 610 l 479 117 l 713 117 l 713 0 l 121 0 l 121 117 l 354 117 l 354 493 l 158 493 l 158 610 l 158 610 m 315 692 l 315 900 l 479 900 l 479 692 l 315 692 l 315 692 z "},"j":{"ha":833,"x_min":101,"x_max":597,"o":"m 131 610 l 597 610 l 597 47 q 597 31 597 39 q 596 14 596 22 q 524 -134 586 -67 q 319 -201 463 -201 q 312 -201 315 -201 q 306 -201 308 -201 q 218 -192 264 -200 q 101 -171 172 -185 l 132 -57 q 229 -74 182 -67 q 321 -81 276 -81 q 448 -35 424 -81 q 472 68 472 10 l 472 493 l 131 493 l 131 610 l 131 610 m 433 692 l 433 900 l 597 900 l 597 692 l 433 692 l 433 692 z "},"k":{"ha":833,"x_min":42,"x_max":799,"o":"m 799 117 l 799 0 l 464 0 l 464 117 l 513 117 l 350 290 l 296 250 l 296 0 l 60 0 l 60 117 l 171 117 l 171 746 l 53 738 l 42 853 l 296 869 l 296 371 l 454 490 l 454 493 l 388 493 l 388 610 l 749 610 l 749 493 l 625 493 l 436 353 l 672 117 l 799 117 l 799 117 z "},"l":{"ha":833,"x_min":121,"x_max":713,"o":"m 139 731 l 125 846 l 479 869 l 479 117 l 713 117 l 713 0 l 121 0 l 121 117 l 354 117 l 354 746 l 139 731 l 139 731 z "},"m":{"ha":833,"x_min":-17,"x_max":856,"o":"m -17 610 l 201 610 l 201 571 l 204 571 q 252 615 224 600 q 313 631 281 631 q 330 629 321 631 q 349 625 339 628 q 400 603 375 618 q 442 567 425 588 q 509 613 472 594 q 588 631 546 631 q 604 630 596 631 q 622 628 613 629 q 725 571 678 618 q 772 417 772 524 l 772 117 l 856 117 l 856 0 l 647 0 l 647 426 q 631 495 647 481 q 594 510 614 510 q 592 510 593 510 q 590 510 592 510 q 534 488 560 510 q 489 438 508 467 l 489 117 l 572 117 l 572 0 l 364 0 l 364 433 q 351 486 364 463 q 306 510 338 510 q 250 493 274 510 q 206 449 226 476 l 206 117 l 301 117 l 301 0 l -17 0 l -17 117 l 81 117 l 81 493 l -17 493 l -17 610 l -17 610 z "},"n":{"ha":833,"x_min":39,"x_max":808,"o":"m 39 610 l 275 610 l 275 565 q 322 592 299 581 q 371 613 346 604 q 396 620 383 617 q 421 626 408 624 q 445 629 433 628 q 469 631 457 631 q 644 578 585 631 q 703 414 703 525 l 703 117 l 808 117 l 808 0 l 458 0 l 458 117 l 578 117 l 578 401 q 555 489 578 468 q 478 510 532 510 q 370 485 422 510 q 275 424 318 460 l 275 117 l 386 117 l 386 0 l 39 0 l 39 117 l 150 117 l 150 493 l 39 493 l 39 610 l 39 610 z "},"o":{"ha":833,"x_min":56,"x_max":778,"o":"m 778 304 q 670 67 778 153 q 417 -19 563 -19 q 163 67 271 -19 q 56 304 56 153 q 163 543 56 456 q 417 631 271 631 q 670 543 563 631 q 778 304 778 456 l 778 304 m 185 304 q 252 151 185 207 q 417 96 319 96 q 581 151 514 96 q 649 304 649 207 q 581 458 649 403 q 417 514 514 514 q 252 458 319 514 q 185 304 185 403 l 185 304 z "},"p":{"ha":833,"x_min":13,"x_max":778,"o":"m 249 61 l 249 -81 l 447 -81 l 447 -197 l 13 -197 l 13 -81 l 124 -81 l 124 493 l 13 493 l 13 610 l 249 610 l 249 560 q 294 591 271 578 q 344 613 318 604 q 381 623 363 619 q 417 629 399 626 q 435 630 425 629 q 453 631 444 631 q 683 537 589 631 q 778 299 778 443 q 682 75 778 169 q 458 -19 586 -19 q 439 -19 449 -19 q 419 -17 429 -18 q 329 8 374 -11 q 249 61 285 26 l 249 61 m 243 306 q 306 157 243 218 q 453 96 368 96 q 592 157 535 96 q 649 303 649 218 q 594 455 649 396 q 453 514 539 514 q 307 457 371 514 q 243 306 243 400 l 243 306 z "},"q":{"ha":833,"x_min":42,"x_max":807,"o":"m 696 493 l 696 -81 l 807 -81 l 807 -197 l 372 -197 l 372 -81 l 571 -81 l 571 61 q 490 8 535 26 q 400 -17 446 -11 q 381 -19 390 -18 q 361 -19 371 -19 q 138 75 233 -19 q 42 299 42 169 q 137 537 42 443 q 367 631 232 631 q 475 613 422 631 q 571 560 528 596 l 571 610 l 807 610 l 807 493 l 696 493 l 696 493 m 576 306 q 513 457 576 400 q 367 514 449 514 q 226 455 281 514 q 171 303 171 396 q 228 157 171 218 q 367 96 285 96 q 515 157 453 96 q 576 306 576 218 l 576 306 z "},"r":{"ha":833,"x_min":79,"x_max":792,"o":"m 90 610 l 371 610 l 371 513 q 376 517 374 515 q 382 522 379 519 q 496 599 438 567 q 628 631 554 631 q 715 609 682 631 q 765 563 749 588 q 780 535 775 549 q 786 513 785 522 l 792 471 l 668 451 q 656 501 667 488 q 618 514 644 514 q 540 487 601 514 q 371 357 478 460 l 371 117 l 626 117 l 626 0 l 79 0 l 79 117 l 246 117 l 246 493 l 90 493 l 90 610 l 90 610 z "},"s":{"ha":833,"x_min":108,"x_max":729,"o":"m 579 638 l 697 621 q 695 610 696 615 q 693 599 694 604 q 686 556 689 578 q 683 515 683 535 q 685 488 683 503 q 689 457 686 472 q 697 422 692 439 q 708 392 701 404 l 581 376 l 574 426 q 569 441 572 433 q 561 457 567 449 q 508 497 546 479 q 403 514 471 514 q 374 511 392 514 q 339 503 357 508 q 283 477 308 493 q 257 440 257 461 q 306 385 257 401 q 475 361 356 368 q 651 324 572 356 q 729 168 729 292 q 722 130 729 153 q 694 82 714 107 q 604 12 665 43 q 438 -19 543 -19 q 370 -15 401 -19 q 307 -3 339 -11 q 274 8 290 1 q 239 22 257 14 l 235 -24 l 108 -7 q 117 28 114 13 q 124 57 121 43 q 126 81 125 68 q 128 108 128 93 q 128 116 128 113 q 128 124 128 119 q 122 179 126 151 q 108 240 117 207 l 232 256 l 244 194 q 249 180 246 188 q 257 164 253 172 q 315 117 274 139 q 429 96 356 96 q 556 122 511 96 q 600 181 600 147 q 567 227 600 215 q 436 243 535 239 q 390 247 414 244 q 342 251 365 249 q 194 306 261 265 q 128 440 128 346 q 132 474 128 456 q 147 511 136 493 q 232 593 171 556 q 407 631 293 631 q 426 630 417 631 q 446 629 436 629 q 504 618 474 626 q 574 594 535 610 l 579 638 l 579 638 z "},"t":{"ha":833,"x_min":79,"x_max":725,"o":"m 176 781 l 301 781 l 301 610 l 643 610 l 643 493 l 301 493 l 301 218 q 324 131 301 161 q 415 100 346 100 q 535 121 464 100 q 703 185 606 142 l 725 65 q 556 1 632 22 q 429 -19 481 -19 q 237 44 297 -19 q 176 199 176 107 l 176 493 l 79 493 l 79 610 l 176 610 l 176 781 l 176 781 z "},"u":{"ha":833,"x_min":13,"x_max":776,"o":"m 13 610 l 250 610 l 250 201 q 275 131 250 153 q 329 104 300 110 q 350 101 340 101 q 368 100 360 100 q 414 108 389 100 q 464 132 439 117 q 503 161 483 144 q 540 197 522 178 l 540 493 l 426 493 l 426 610 l 665 610 l 665 117 l 776 117 l 776 0 l 540 0 l 540 40 q 491 11 518 24 q 436 -8 464 -1 q 402 -17 419 -14 q 369 -19 385 -19 q 186 44 247 -19 q 125 201 125 108 l 125 493 l 13 493 l 13 610 l 13 610 z "},"v":{"ha":833,"x_min":13,"x_max":821,"o":"m 13 493 l 13 610 l 356 610 l 356 493 l 264 493 l 417 169 l 569 493 l 478 493 l 478 610 l 821 610 l 821 493 l 711 493 l 467 0 l 367 0 l 122 493 l 13 493 l 13 493 z "},"w":{"ha":833,"x_min":-11,"x_max":844,"o":"m 844 610 l 844 493 l 779 493 l 629 0 l 528 0 l 418 299 l 415 299 l 306 0 l 204 0 l 54 493 l -11 493 l -11 610 l 286 610 l 286 493 l 176 493 l 267 193 l 272 193 l 385 510 l 449 510 l 561 193 l 567 193 l 657 493 l 547 493 l 547 610 l 844 610 l 844 610 z "},"x":{"ha":833,"x_min":22,"x_max":811,"o":"m 504 317 l 711 117 l 811 117 l 811 0 l 488 0 l 488 117 l 542 117 l 417 236 l 292 117 l 346 117 l 346 0 l 22 0 l 22 117 l 122 117 l 329 317 l 146 493 l 46 493 l 46 610 l 360 610 l 360 493 l 319 493 l 417 400 l 514 493 l 474 493 l 474 610 l 788 610 l 788 493 l 688 493 l 504 317 l 504 317 z "},"y":{"ha":833,"x_min":8,"x_max":821,"o":"m 8 610 l 314 610 l 314 493 l 239 493 l 407 183 l 590 493 l 515 493 l 515 610 l 821 610 l 821 493 l 731 493 l 389 -81 l 489 -81 l 489 -197 l 28 -197 l 28 -81 l 249 -81 l 335 61 l 100 493 l 8 493 l 8 610 l 8 610 z "},"z":{"ha":833,"x_min":126,"x_max":708,"o":"m 139 610 l 708 610 l 708 515 l 314 117 l 588 117 l 588 236 l 708 236 l 708 0 l 126 0 l 126 99 l 517 493 l 260 493 l 260 379 l 139 379 l 139 610 l 139 610 z "},"{":{"ha":833,"x_min":236,"x_max":631,"o":"m 631 -21 l 631 -142 l 578 -142 q 419 -94 485 -140 q 354 51 353 -47 l 354 240 q 318 285 351 272 q 236 299 285 299 l 236 415 q 318 429 285 415 q 354 474 351 443 l 354 663 q 419 809 353 763 q 578 856 485 856 l 631 856 l 631 735 q 523 726 567 735 q 479 664 479 717 l 479 472 q 464 408 479 439 q 424 357 449 376 q 464 306 449 338 q 479 242 479 275 l 479 50 q 523 -10 479 -1 q 631 -19 567 -19 l 631 -21 z "},"|":{"ha":833,"x_min":354,"x_max":479,"o":"m 479 869 l 479 -107 l 354 -107 l 354 869 l 479 869 l 479 869 z "},"}":{"ha":833,"x_min":203,"x_max":597,"o":"m 203 735 l 203 856 l 256 856 q 415 809 349 856 q 479 663 481 763 l 479 474 q 515 429 482 443 q 597 415 549 415 l 597 299 q 515 285 549 299 q 479 240 482 272 l 479 51 q 415 -94 481 -47 q 256 -140 349 -140 l 203 -142 l 203 -21 q 311 -10 268 -19 q 354 50 354 -1 l 354 242 q 369 306 354 275 q 410 357 385 338 q 369 408 385 376 q 354 472 354 439 l 354 664 q 311 726 354 717 q 203 735 268 735 l 203 735 z "},"~":{"ha":833,"x_min":113,"x_max":722,"o":"m 649 426 l 722 347 q 696 306 708 325 q 669 271 683 286 q 609 219 640 236 q 540 203 578 203 q 491 210 518 203 q 428 232 464 218 l 376 253 q 372 255 375 254 q 368 256 369 256 q 324 272 344 265 q 289 279 303 279 q 263 272 275 279 q 238 253 250 265 q 213 219 225 239 q 186 172 200 199 l 113 253 q 194 363 151 321 q 300 404 236 404 q 334 401 317 404 q 369 393 351 399 q 403 381 386 388 q 438 367 421 374 q 506 339 476 350 q 549 328 536 328 q 560 330 554 328 q 574 335 567 332 q 609 366 592 344 q 640 410 626 388 q 645 418 643 414 q 649 426 647 422 l 649 426 z "},"Ø":{"ha":833,"x_min":22,"x_max":811,"o":"m 504 317 l 711 117 l 811 117 l 811 0 l 488 0 l 488 117 l 542 117 l 417 236 l 292 117 l 346 117 l 346 0 l 22 0 l 22 117 l 122 117 l 329 317 l 146 493 l 46 493 l 46 610 l 360 610 l 360 493 l 319 493 l 417 400 l 514 493 l 474 493 l 474 610 l 788 610 l 788 493 l 688 493 l 504 317 l 504 317 z "},"Ð":{"ha":833,"x_min":13,"x_max":778,"o":"m 249 61 l 249 -81 l 447 -81 l 447 -197 l 13 -197 l 13 -81 l 124 -81 l 124 493 l 13 493 l 13 610 l 249 610 l 249 560 q 294 591 271 578 q 344 613 318 604 q 381 623 363 619 q 417 629 399 626 q 435 630 425 629 q 453 631 444 631 q 683 537 589 631 q 778 299 778 443 q 682 75 778 169 q 458 -19 586 -19 q 439 -19 449 -19 q 419 -17 429 -18 q 329 8 374 -11 q 249 61 285 26 l 249 61 m 243 306 q 306 157 243 218 q 453 96 368 96 q 592 157 535 96 q 649 303 649 218 q 594 455 649 396 q 453 514 539 514 q 307 457 371 514 q 243 306 243 400 l 243 306 z "},"´":{"ha":833,"x_min":43,"x_max":790,"o":"m 194 0 l 194 117 l 354 117 l 354 664 l 188 664 l 168 410 l 43 425 l 71 781 l 763 781 l 790 425 l 665 410 l 646 664 l 479 664 l 479 117 l 639 117 l 639 0 l 194 0 l 194 0 z "},"Ü":{"ha":833,"x_min":354,"x_max":479,"o":"m 479 869 l 479 -107 l 354 -107 l 354 869 l 479 869 l 479 869 z "},"¶":{"ha":833,"x_min":-4,"x_max":838,"o":"m 422 172 l 619 664 l 497 664 l 497 781 l 838 781 l 838 664 l 746 664 l 481 0 l 358 0 l 96 664 l -4 664 l -4 781 l 340 781 l 340 664 l 226 664 l 422 172 l 422 172 z "},"Ú":{"ha":833,"x_min":126,"x_max":708,"o":"m 139 610 l 708 610 l 708 515 l 314 117 l 588 117 l 588 236 l 708 236 l 708 0 l 126 0 l 126 99 l 517 493 l 260 493 l 260 379 l 139 379 l 139 610 l 139 610 z "},"Û":{"ha":833,"x_min":236,"x_max":631,"o":"m 631 -21 l 631 -142 l 578 -142 q 419 -94 485 -140 q 354 51 353 -47 l 354 240 q 318 285 351 272 q 236 299 285 299 l 236 415 q 318 429 285 415 q 354 474 351 443 l 354 663 q 419 809 353 763 q 578 856 485 856 l 631 856 l 631 735 q 523 726 567 735 q 479 664 479 717 l 479 472 q 464 408 479 439 q 424 357 449 376 q 464 306 449 338 q 479 242 479 275 l 479 50 q 523 -10 479 -1 q 631 -19 567 -19 l 631 -21 z "},"Ä":{"ha":833,"x_min":42,"x_max":807,"o":"m 807 117 l 807 0 l 571 0 l 571 61 q 490 8 535 26 q 400 -17 446 -11 q 381 -19 390 -18 q 361 -19 371 -19 q 138 75 233 -19 q 42 299 42 169 q 137 537 42 443 q 367 631 232 631 q 475 613 422 631 q 571 560 528 596 l 571 746 l 356 731 l 342 846 l 696 869 l 696 117 l 807 117 l 807 117 m 576 306 q 513 457 576 400 q 367 514 449 514 q 226 455 281 514 q 171 303 171 396 q 228 157 171 218 q 367 96 285 96 q 515 157 453 96 q 576 306 576 218 l 576 306 z "},"È":{"ha":833,"x_min":21,"x_max":808,"o":"m 703 414 l 703 117 l 808 117 l 808 0 l 458 0 l 458 117 l 578 117 l 578 401 q 555 489 578 468 q 478 510 532 510 q 370 485 422 510 q 275 424 318 460 l 275 117 l 386 117 l 386 0 l 39 0 l 39 117 l 150 117 l 150 746 l 32 738 l 21 853 l 275 869 l 275 565 q 341 601 307 586 q 410 624 375 617 q 440 629 425 628 q 469 631 454 631 q 644 578 585 631 q 703 414 703 525 l 703 414 z "},"À":{"ha":833,"x_min":183,"x_max":549,"o":"m 415 706 l 183 918 l 371 918 l 549 706 l 415 706 l 415 706 z "},"Ì":{"ha":833,"x_min":121,"x_max":713,"o":"m 139 731 l 125 846 l 479 869 l 479 117 l 713 117 l 713 0 l 121 0 l 121 117 l 354 117 l 354 746 l 139 731 l 139 731 z "},"â":{"ha":833,"x_min":201,"x_max":632,"o":"m 226 413 l 201 781 l 376 781 l 351 413 l 226 413 l 226 413 m 482 413 l 457 781 l 632 781 l 607 413 l 482 413 l 482 413 z "},"Ô":{"ha":833,"x_min":79,"x_max":725,"o":"m 176 781 l 301 781 l 301 610 l 643 610 l 643 493 l 301 493 l 301 218 q 324 131 301 161 q 415 100 346 100 q 535 121 464 100 q 703 185 606 142 l 725 65 q 556 1 632 22 q 429 -19 481 -19 q 237 44 297 -19 q 176 199 176 107 l 176 493 l 79 493 l 79 610 l 176 610 l 176 781 l 176 781 z "},"µ":{"ha":833,"x_min":19,"x_max":814,"o":"m 19 664 l 19 781 l 378 781 l 378 664 l 242 664 l 242 292 q 285 140 242 183 q 417 96 328 96 q 549 140 507 96 q 592 292 592 183 l 592 664 l 456 664 l 456 781 l 814 781 l 814 664 l 717 664 l 717 286 q 626 44 717 111 q 425 -24 535 -22 q 420 -24 422 -24 q 417 -24 418 -24 q 413 -24 415 -24 q 408 -24 411 -24 q 208 44 299 -22 q 117 286 117 111 l 117 664 l 19 664 l 19 664 z "},"Å":{"ha":833,"x_min":69,"x_max":768,"o":"m 711 189 l 768 83 q 690 46 731 64 q 607 13 649 28 q 516 -10 561 -1 q 431 -19 471 -19 q 177 67 285 -19 q 69 304 69 153 q 177 543 69 456 q 431 631 285 631 q 490 624 457 631 q 558 603 524 618 q 688 510 629 574 q 747 338 747 446 q 747 319 747 331 q 744 294 746 307 q 744 289 744 292 q 743 283 743 286 q 742 270 743 276 q 742 258 742 264 l 199 258 q 206 227 199 247 q 229 185 213 207 q 299 126 253 153 q 419 100 344 100 q 509 110 465 100 q 596 138 553 121 q 653 162 624 149 q 711 189 682 175 l 711 189 m 208 375 l 618 375 q 610 402 618 383 q 586 442 603 421 q 523 492 564 469 q 418 514 482 514 q 401 513 410 514 q 385 511 393 513 q 281 472 331 504 q 208 375 232 440 l 208 375 z "},"É":{"ha":833,"x_min":121,"x_max":713,"o":"m 158 610 l 479 610 l 479 117 l 713 117 l 713 0 l 121 0 l 121 117 l 354 117 l 354 493 l 158 493 l 158 610 l 158 610 m 315 692 l 315 900 l 479 900 l 479 692 l 315 692 l 315 692 z "},"Á":{"ha":833,"x_min":63,"x_max":778,"o":"m 778 117 l 778 0 l 533 0 l 533 63 q 426 2 482 24 q 308 -19 371 -19 q 306 -19 307 -19 q 304 -19 306 -19 q 138 40 214 -18 q 63 194 63 97 q 147 349 63 285 q 365 414 232 414 q 407 413 382 414 q 458 410 432 413 q 498 407 478 408 q 533 403 518 406 q 533 412 533 407 q 533 422 533 417 q 510 485 532 457 q 399 514 488 514 q 325 506 367 514 q 240 483 283 497 q 199 469 219 476 q 158 451 178 461 l 110 561 q 258 612 185 593 q 397 631 332 631 q 411 631 404 631 q 425 629 418 631 q 585 581 513 625 q 658 419 658 536 l 658 117 l 778 117 l 778 117 m 533 214 l 533 286 q 522 287 528 286 q 508 289 515 288 q 444 294 475 292 q 394 297 413 297 q 271 279 313 297 q 211 239 229 261 q 195 208 199 222 q 192 186 192 193 q 218 129 192 151 q 276 100 244 107 q 293 97 285 97 q 308 96 301 96 q 338 98 322 96 q 368 106 353 100 q 460 149 415 119 q 533 214 504 179 l 533 214 z "},"Í":{"ha":833,"x_min":-17,"x_max":856,"o":"m -17 610 l 201 610 l 201 571 l 204 571 q 252 615 224 600 q 313 631 281 631 q 330 629 321 631 q 349 625 339 628 q 400 603 375 618 q 442 567 425 588 q 509 613 472 594 q 588 631 546 631 q 604 630 596 631 q 622 628 613 629 q 725 571 678 618 q 772 417 772 524 l 772 117 l 856 117 l 856 0 l 647 0 l 647 426 q 631 495 647 481 q 594 510 614 510 q 592 510 593 510 q 590 510 592 510 q 534 488 560 510 q 489 438 508 467 l 489 117 l 572 117 l 572 0 l 364 0 l 364 433 q 351 486 364 463 q 306 510 338 510 q 250 493 274 510 q 206 449 226 476 l 206 117 l 301 117 l 301 0 l -17 0 l -17 117 l 81 117 l 81 493 l -17 493 l -17 610 l -17 610 z "},"Õ":{"ha":833,"x_min":13,"x_max":776,"o":"m 13 610 l 250 610 l 250 201 q 275 131 250 153 q 329 104 300 110 q 350 101 340 101 q 368 100 360 100 q 414 108 389 100 q 464 132 439 117 q 503 161 483 144 q 540 197 522 178 l 540 493 l 426 493 l 426 610 l 665 610 l 665 117 l 776 117 l 776 0 l 540 0 l 540 40 q 491 11 518 24 q 436 -8 464 -1 q 402 -17 419 -14 q 369 -19 385 -19 q 186 44 247 -19 q 125 201 125 108 l 125 493 l 13 493 l 13 610 l 13 610 z "},"Ù":{"ha":833,"x_min":8,"x_max":821,"o":"m 8 610 l 314 610 l 314 493 l 239 493 l 407 183 l 590 493 l 515 493 l 515 610 l 821 610 l 821 493 l 731 493 l 389 -81 l 489 -81 l 489 -197 l 28 -197 l 28 -81 l 249 -81 l 335 61 l 100 493 l 8 493 l 8 610 l 8 610 z "},"Ñ":{"ha":833,"x_min":42,"x_max":807,"o":"m 696 493 l 696 -81 l 807 -81 l 807 -197 l 372 -197 l 372 -81 l 571 -81 l 571 61 q 490 8 535 26 q 400 -17 446 -11 q 381 -19 390 -18 q 361 -19 371 -19 q 138 75 233 -19 q 42 299 42 169 q 137 537 42 443 q 367 631 232 631 q 475 613 422 631 q 571 560 528 596 l 571 610 l 807 610 l 807 493 l 696 493 l 696 493 m 576 306 q 513 457 576 400 q 367 514 449 514 q 226 455 281 514 q 171 303 171 396 q 228 157 171 218 q 367 96 285 96 q 515 157 453 96 q 576 306 576 218 l 576 306 z "},"Ý":{"ha":833,"x_min":203,"x_max":597,"o":"m 203 735 l 203 856 l 256 856 q 415 809 349 856 q 479 663 481 763 l 479 474 q 515 429 482 443 q 597 415 549 415 l 597 299 q 515 285 549 299 q 479 240 482 272 l 479 51 q 415 -94 481 -47 q 256 -140 349 -140 l 203 -142 l 203 -21 q 311 -10 268 -19 q 354 50 354 -1 l 354 242 q 369 306 354 275 q 410 357 385 338 q 369 408 385 376 q 354 472 354 439 l 354 664 q 311 726 354 717 q 203 735 268 735 l 203 735 z "},"∙":{"ha":833,"x_min":286,"x_max":547,"o":"m 286 304 q 327 388 286 357 q 417 419 368 419 q 506 388 465 419 q 547 304 547 357 q 506 220 547 251 q 417 189 465 189 q 327 220 368 189 q 286 304 286 251 l 286 304 z "},"Æ":{"ha":833,"x_min":129,"x_max":746,"o":"m 746 847 l 694 729 q 581 746 635 739 q 494 753 526 753 q 409 732 425 753 q 393 650 393 711 l 393 610 l 678 610 l 678 493 l 393 493 l 393 117 l 678 117 l 678 0 l 129 0 l 129 117 l 268 117 l 268 493 l 129 493 l 129 610 l 268 610 l 268 668 q 332 825 268 781 q 511 869 396 869 q 586 865 524 869 q 721 850 649 860 q 733 849 726 850 q 746 847 739 849 l 746 847 z "},"Ê":{"ha":833,"x_min":101,"x_max":597,"o":"m 131 610 l 597 610 l 597 47 q 597 31 597 39 q 596 14 596 22 q 524 -134 586 -67 q 319 -201 463 -201 q 312 -201 315 -201 q 306 -201 308 -201 q 218 -192 264 -200 q 101 -171 172 -185 l 132 -57 q 229 -74 182 -67 q 321 -81 276 -81 q 448 -35 424 -81 q 472 68 472 10 l 472 493 l 131 493 l 131 610 l 131 610 m 433 692 l 433 900 l 597 900 l 597 692 l 433 692 l 433 692 z "},"Â":{"ha":833,"x_min":14,"x_max":797,"o":"m 25 738 l 14 853 l 268 869 l 268 560 q 364 613 311 596 q 472 631 417 631 q 703 537 608 631 q 797 299 797 443 q 701 75 797 169 q 478 -19 606 -19 q 458 -19 468 -19 q 439 -17 449 -18 q 349 8 393 -11 q 268 61 304 26 l 268 0 l 32 0 l 32 117 l 143 117 l 143 746 l 25 738 l 25 738 m 263 306 q 325 157 263 218 q 472 96 388 96 q 611 157 554 96 q 668 303 668 218 q 613 455 668 396 q 472 514 558 514 q 326 457 390 514 q 263 306 263 400 l 263 306 z "},"Î":{"ha":833,"x_min":39,"x_max":808,"o":"m 39 610 l 275 610 l 275 565 q 322 592 299 581 q 371 613 346 604 q 396 620 383 617 q 421 626 408 624 q 445 629 433 628 q 469 631 457 631 q 644 578 585 631 q 703 414 703 525 l 703 117 l 808 117 l 808 0 l 458 0 l 458 117 l 578 117 l 578 401 q 555 489 578 468 q 478 510 532 510 q 370 485 422 510 q 275 424 318 460 l 275 117 l 386 117 l 386 0 l 39 0 l 39 117 l 150 117 l 150 493 l 39 493 l 39 610 l 39 610 z "},"ê":{"ha":833,"x_min":126,"x_max":707,"o":"m 126 578 l 174 717 l 349 654 l 340 835 l 493 835 l 485 654 l 660 717 l 707 578 l 528 531 l 643 390 l 521 304 l 417 454 l 313 304 l 190 390 l 306 531 l 126 578 l 126 578 z "},"Ç":{"ha":833,"x_min":56,"x_max":792,"o":"m 556 610 l 792 610 l 792 493 l 681 493 l 681 36 q 613 -134 681 -67 q 401 -201 546 -201 q 317 -196 360 -201 q 231 -182 274 -190 q 167 -167 199 -175 q 103 -151 135 -160 l 133 -36 q 305 -74 258 -67 q 383 -81 351 -81 q 385 -81 385 -81 q 386 -81 386 -81 q 523 -47 490 -81 q 556 76 556 -12 q 498 40 531 54 q 432 19 465 26 q 401 14 417 15 q 371 13 385 13 q 150 101 244 13 q 56 331 56 189 q 152 545 56 460 q 374 631 249 631 q 397 629 385 631 q 419 626 408 628 q 488 603 454 619 q 556 560 522 588 l 556 610 l 556 610 m 561 319 q 509 458 561 401 q 375 514 457 514 q 242 459 299 514 q 185 322 185 404 q 240 185 185 242 q 372 129 296 129 q 507 184 453 129 q 561 319 561 239 l 561 319 z "},"Ë":{"ha":833,"x_min":42,"x_max":799,"o":"m 799 117 l 799 0 l 464 0 l 464 117 l 513 117 l 350 290 l 296 250 l 296 0 l 60 0 l 60 117 l 171 117 l 171 746 l 53 738 l 42 853 l 296 869 l 296 371 l 454 490 l 454 493 l 388 493 l 388 610 l 749 610 l 749 493 l 625 493 l 436 353 l 672 117 l 799 117 l 799 117 z "},"Ã":{"ha":833,"x_min":69,"x_max":749,"o":"m 606 638 l 732 614 q 726 594 729 604 q 721 575 724 585 q 712 531 715 553 q 708 490 708 510 q 715 438 708 469 q 731 364 722 406 l 608 349 q 606 365 607 357 q 603 382 604 374 q 594 424 600 404 q 578 457 589 443 q 538 488 563 476 q 488 507 514 500 q 458 513 472 511 q 431 514 443 514 q 266 458 333 514 q 199 304 199 403 q 266 153 199 207 q 431 100 333 100 q 526 124 463 100 q 678 208 589 147 l 749 111 q 676 64 711 86 q 604 25 640 42 q 519 -8 563 4 q 431 -19 476 -19 q 177 67 285 -19 q 69 304 69 153 q 177 543 69 456 q 431 631 285 631 q 513 618 469 631 q 601 590 557 606 q 605 615 604 603 q 606 638 606 626 l 606 638 z "},"Ï":{"ha":833,"x_min":56,"x_max":778,"o":"m 778 304 q 670 67 778 153 q 417 -19 563 -19 q 163 67 271 -19 q 56 304 56 153 q 163 543 56 456 q 417 631 271 631 q 670 543 563 631 q 778 304 778 456 l 778 304 m 185 304 q 252 151 185 207 q 417 96 319 96 q 581 151 514 96 q 649 304 649 207 q 581 458 649 403 q 417 514 514 514 q 252 458 319 514 q 185 304 185 403 l 185 304 z "},"ó":{"ha":833,"x_min":101,"x_max":682,"o":"m 179 653 l 115 753 q 238 822 186 799 q 336 853 289 846 q 357 855 346 854 q 379 856 368 856 q 383 856 381 856 q 388 856 385 856 q 561 794 482 853 q 640 631 640 735 q 621 535 640 581 q 561 457 601 490 q 650 367 618 422 q 682 243 682 313 q 590 51 682 121 q 383 -19 499 -19 q 366 -19 375 -19 q 349 -18 357 -19 q 249 1 303 -15 q 101 56 196 17 l 150 165 q 231 131 189 147 q 314 107 272 115 q 350 102 332 104 q 386 100 368 100 q 503 137 454 100 q 553 244 553 174 q 503 353 553 322 q 383 385 453 385 l 313 385 l 313 501 l 367 501 q 468 535 425 501 q 511 625 511 569 q 472 710 511 681 q 379 739 432 739 q 372 739 375 739 q 365 739 368 739 q 282 713 325 735 q 179 653 239 690 l 179 653 z "},"³":{"ha":833,"x_min":79,"x_max":754,"o":"m 632 808 l 754 781 q 752 775 753 778 q 750 769 751 772 q 745 753 747 761 q 740 736 743 744 q 726 681 732 708 q 719 628 719 653 q 724 569 719 599 q 735 503 729 539 l 607 492 l 600 567 q 596 590 599 576 q 585 619 593 604 q 538 665 571 644 q 435 685 504 685 q 405 683 421 685 q 372 676 389 681 q 295 634 331 664 q 260 551 260 604 q 296 480 260 503 q 375 449 332 457 q 408 444 392 446 q 439 440 425 442 q 474 438 456 439 q 510 433 492 436 q 670 379 597 422 q 743 208 743 336 q 735 163 743 190 q 708 104 728 135 q 611 16 678 56 q 428 -24 544 -24 q 371 -19 400 -24 q 311 -7 342 -15 q 266 6 289 -1 q 222 25 243 14 l 218 -31 l 92 -12 q 95 5 93 -3 q 99 21 97 13 q 106 69 103 44 q 110 114 110 93 q 100 188 110 149 q 79 265 90 226 l 201 288 l 219 213 q 222 206 221 210 q 224 199 222 201 q 282 128 236 160 q 425 96 328 96 q 453 97 439 96 q 482 101 468 99 q 573 138 532 110 q 614 222 614 167 q 576 293 614 278 q 467 315 538 308 q 454 317 461 317 q 440 318 447 318 q 379 326 415 321 q 304 342 343 331 q 185 411 239 363 q 131 560 131 460 q 131 570 131 565 q 132 579 131 575 q 163 665 138 624 q 225 736 189 707 q 316 786 265 769 q 418 806 367 803 q 426 806 422 806 q 435 806 431 806 q 500 800 469 806 q 561 783 531 794 q 592 772 576 778 q 622 757 607 765 l 632 808 l 632 808 z "},"¿":{"ha":833,"x_min":0,"x_max":833,"o":"m 0 -104 l 833 -104 l 833 -174 l 0 -174 l 0 -104 l 0 -104 z "},"»":{"ha":833,"x_min":354,"x_max":646,"o":"m 479 735 l 479 -21 l 646 -21 l 646 -142 l 354 -142 l 354 856 l 646 856 l 646 735 l 479 735 l 479 735 z "},"½":{"ha":833,"x_min":188,"x_max":479,"o":"m 354 -21 l 354 735 l 188 735 l 188 856 l 479 856 l 479 -142 l 188 -142 l 188 -21 l 354 -21 l 354 -21 z "},"":{"ha":833,"x_min":0,"x_max":0,"o":""},"ò":{"ha":833,"x_min":99,"x_max":679,"o":"m 557 244 l 678 244 l 678 0 l 99 0 l 99 110 q 320 301 222 213 q 490 458 418 389 q 536 521 522 489 q 550 594 550 553 q 515 684 550 649 q 439 732 481 719 q 417 737 428 735 q 394 739 406 739 q 297 713 339 739 q 247 656 256 686 q 247 648 247 651 q 246 642 246 644 l 246 601 l 125 601 l 125 724 q 245 820 178 785 q 393 856 313 856 q 593 781 507 856 q 679 589 679 707 q 675 547 679 569 q 663 499 671 524 q 635 440 651 468 q 596 390 618 411 q 453 260 529 329 q 290 117 378 192 l 557 117 l 557 244 l 557 244 z "},"Þ":{"ha":833,"x_min":113,"x_max":722,"o":"m 649 426 l 722 347 q 696 306 708 325 q 669 271 683 286 q 609 219 640 236 q 540 203 578 203 q 491 210 518 203 q 428 232 464 218 l 376 253 q 372 255 375 254 q 368 256 369 256 q 324 272 344 265 q 289 279 303 279 q 263 272 275 279 q 238 253 250 265 q 213 219 225 239 q 186 172 200 199 l 113 253 q 194 363 151 321 q 300 404 236 404 q 334 401 317 404 q 369 393 351 399 q 403 381 386 388 q 438 367 421 374 q 506 339 476 350 q 549 328 536 328 q 560 330 554 328 q 574 335 567 332 q 609 366 592 344 q 640 410 626 388 q 645 418 643 414 q 649 426 647 422 l 649 426 z "},"©":{"ha":833,"x_min":121,"x_max":713,"o":"m 479 664 l 479 117 l 713 117 l 713 0 l 121 0 l 121 117 l 354 117 l 354 664 l 121 664 l 121 781 l 713 781 l 713 664 l 479 664 l 479 664 z "},"¨":{"ha":833,"x_min":42,"x_max":792,"o":"m 694 664 l 694 117 l 792 117 l 792 0 l 469 0 l 469 117 l 569 117 l 569 347 l 264 347 l 264 117 l 364 117 l 364 0 l 42 0 l 42 117 l 139 117 l 139 664 l 42 664 l 42 781 l 364 781 l 364 664 l 264 664 l 264 464 l 569 464 l 569 664 l 469 664 l 469 781 l 792 781 l 792 664 l 694 664 l 694 664 z "},"ª":{"ha":833,"x_min":65,"x_max":821,"o":"m 650 664 l 650 244 q 574 38 650 99 q 401 -24 499 -24 q 241 2 321 -24 q 82 64 161 28 l 65 393 l 190 393 q 195 273 192 322 q 203 188 199 224 q 265 120 208 144 q 389 96 321 96 q 506 146 486 96 q 525 272 525 196 l 525 664 l 264 664 l 264 781 l 821 781 l 821 664 l 650 664 l 650 664 z "},"’":{"ha":833,"x_min":261,"x_max":572,"o":"m 261 413 l 382 781 l 572 781 l 400 413 l 261 413 l 261 413 z "},"Œ":{"ha":833,"x_min":0,"x_max":792,"o":"m 639 544 l 639 253 l 546 253 l 546 347 l 479 347 l 479 117 l 676 117 l 685 294 l 792 294 l 792 0 l 304 0 q 94 108 189 0 q 0 385 0 217 q 99 661 0 542 q 365 781 199 781 l 772 781 l 778 490 l 681 490 l 664 664 l 479 664 l 479 450 l 546 450 l 546 544 l 639 544 l 639 544 m 354 117 l 354 664 l 332 664 q 318 663 325 664 q 304 660 311 663 q 184 560 239 643 q 129 375 129 476 q 180 199 129 272 q 292 117 231 125 q 297 117 294 117 q 303 117 300 117 l 354 117 l 354 117 z "},"Ó":{"ha":833,"x_min":108,"x_max":729,"o":"m 579 638 l 697 621 q 695 610 696 615 q 693 599 694 604 q 686 556 689 578 q 683 515 683 535 q 685 488 683 503 q 689 457 686 472 q 697 422 692 439 q 708 392 701 404 l 581 376 l 574 426 q 569 441 572 433 q 561 457 567 449 q 508 497 546 479 q 403 514 471 514 q 374 511 392 514 q 339 503 357 508 q 283 477 308 493 q 257 440 257 461 q 306 385 257 401 q 475 361 356 368 q 651 324 572 356 q 729 168 729 292 q 722 130 729 153 q 694 82 714 107 q 604 12 665 43 q 438 -19 543 -19 q 370 -15 401 -19 q 307 -3 339 -11 q 274 8 290 1 q 239 22 257 14 l 235 -24 l 108 -7 q 117 28 114 13 q 124 57 121 43 q 126 81 125 68 q 128 108 128 93 q 128 116 128 113 q 128 124 128 119 q 122 179 126 151 q 108 240 117 207 l 232 256 l 244 194 q 249 180 246 188 q 257 164 253 172 q 315 117 274 139 q 429 96 356 96 q 556 122 511 96 q 600 181 600 147 q 567 227 600 215 q 436 243 535 239 q 390 247 414 244 q 342 251 365 249 q 194 306 261 265 q 128 440 128 346 q 132 474 128 456 q 147 511 136 493 q 232 593 171 556 q 407 631 293 631 q 426 630 417 631 q 446 629 436 629 q 504 618 474 626 q 574 594 535 610 l 579 638 l 579 638 z "},"Ò":{"ha":833,"x_min":79,"x_max":792,"o":"m 90 610 l 371 610 l 371 513 q 376 517 374 515 q 382 522 379 519 q 496 599 438 567 q 628 631 554 631 q 715 609 682 631 q 765 563 749 588 q 780 535 775 549 q 786 513 785 522 l 792 471 l 668 451 q 656 501 667 488 q 618 514 644 514 q 540 487 601 514 q 371 357 478 460 l 371 117 l 626 117 l 626 0 l 79 0 l 79 117 l 246 117 l 246 493 l 90 493 l 90 610 l 90 610 z "},"Š":{"ha":833,"x_min":79,"x_max":754,"o":"m 632 808 l 754 781 q 752 775 753 778 q 750 769 751 772 q 745 753 747 761 q 740 736 743 744 q 726 681 732 708 q 719 628 719 653 q 724 569 719 599 q 735 503 729 539 l 607 492 l 600 567 q 596 590 599 576 q 585 619 593 604 q 538 665 571 644 q 435 685 504 685 q 405 683 421 685 q 372 676 389 681 q 295 634 331 664 q 260 551 260 604 q 296 480 260 503 q 375 449 332 457 q 408 444 392 446 q 439 440 425 442 q 474 438 456 439 q 510 433 492 436 q 670 379 597 422 q 743 208 743 336 q 735 163 743 190 q 708 104 728 135 q 611 16 678 56 q 428 -24 544 -24 q 371 -19 400 -24 q 311 -7 342 -15 q 266 6 289 -1 q 222 25 243 14 l 218 -31 l 92 -12 q 95 5 93 -3 q 99 21 97 13 q 106 69 103 44 q 110 114 110 93 q 100 188 110 149 q 79 265 90 226 l 201 288 l 219 213 q 222 206 221 210 q 224 199 222 201 q 282 128 236 160 q 425 96 328 96 q 453 97 439 96 q 482 101 468 99 q 573 138 532 110 q 614 222 614 167 q 576 293 614 278 q 467 315 538 308 q 454 317 461 317 q 440 318 447 318 q 379 326 415 321 q 304 342 343 331 q 185 411 239 363 q 131 560 131 460 q 131 570 131 565 q 132 579 131 575 q 163 665 138 624 q 225 736 189 707 q 316 786 265 769 q 418 806 367 803 q 426 806 422 806 q 435 806 431 806 q 500 800 469 806 q 561 783 531 794 q 592 772 576 778 q 622 757 607 765 l 632 808 l 632 808 m 618 1097 l 690 1056 l 481 856 l 353 856 l 143 1056 l 215 1097 l 417 958 l 618 1097 l 618 1097 z "},"¼":{"ha":833,"x_min":146,"x_max":689,"o":"m 146 822 l 257 869 l 689 -57 l 578 -107 l 146 822 l 146 822 z "},"‰":{"ha":833,"x_min":-56,"x_max":1092,"o":"m 264 172 q 317 303 264 251 q 433 364 369 354 q 445 365 439 364 q 457 365 451 365 q 469 365 463 365 q 481 364 475 364 q 597 303 544 354 q 650 172 650 251 q 597 42 650 93 q 481 -18 544 -8 q 469 -19 475 -18 q 457 -19 463 -19 q 445 -19 451 -19 q 433 -18 439 -18 q 317 42 369 -8 q 264 172 264 93 l 264 172 m 371 172 q 392 108 371 135 q 439 75 414 82 q 448 73 443 74 q 457 72 453 72 q 466 73 461 72 q 475 75 471 74 q 522 108 500 82 q 543 172 543 135 q 522 236 543 210 q 475 269 500 263 q 466 272 471 271 q 457 272 461 272 q 448 272 453 272 q 439 269 443 271 q 392 236 414 263 q 371 172 371 210 l 371 172 m 706 172 q 758 303 706 251 q 875 364 811 354 q 887 365 881 364 q 899 365 893 365 q 910 365 904 365 q 922 364 917 364 q 1039 303 986 354 q 1092 172 1092 251 q 1039 42 1092 93 q 922 -18 986 -8 q 910 -19 917 -18 q 899 -19 904 -19 q 887 -19 893 -19 q 875 -18 881 -18 q 758 42 811 -8 q 706 172 706 93 l 706 172 m 813 172 q 834 108 813 135 q 881 75 856 82 q 890 73 885 74 q 899 72 894 72 q 908 73 903 72 q 917 75 913 74 q 963 108 942 82 q 985 172 985 135 q 963 236 985 210 q 917 269 942 263 q 908 272 913 271 q 899 272 903 272 q 890 272 894 272 q 881 269 885 271 q 834 236 856 263 q 813 172 813 210 l 813 172 m 560 653 l 613 579 l 32 181 l -21 254 l 560 653 l 560 653 m -56 663 q -2 793 -54 742 q 114 854 50 844 q 126 855 119 854 q 138 856 132 856 q 149 855 143 856 q 161 854 156 854 q 278 793 225 844 q 331 663 331 742 q 278 532 331 583 q 161 471 225 481 q 149 470 156 471 q 138 469 143 469 q 126 470 132 469 q 114 471 119 471 q -2 532 50 481 q -54 663 -54 583 l -56 663 m 51 663 q 73 599 51 625 q 119 565 94 572 q 128 563 124 564 q 138 563 133 563 q 147 563 142 563 q 156 565 151 564 q 202 599 181 572 q 224 663 224 625 q 202 726 224 700 q 156 760 181 753 q 147 762 151 761 q 138 763 142 763 q 128 762 133 763 q 119 760 124 761 q 73 726 94 753 q 51 663 51 700 l 51 663 z "},"ù":{"ha":833,"x_min":124,"x_max":694,"o":"m 124 -21 l 124 96 l 225 96 q 445 151 369 96 q 551 350 521 206 q 476 314 517 326 q 392 301 435 301 q 207 385 282 301 q 132 578 132 469 q 207 773 132 690 q 397 856 282 856 q 602 761 510 856 q 694 472 694 667 q 688 377 694 432 q 663 265 682 322 q 535 69 628 158 q 257 -19 443 -19 l 124 -21 l 124 -21 m 261 586 q 297 472 261 522 q 396 422 332 422 q 399 422 397 422 q 404 422 401 422 q 494 453 451 425 q 561 539 538 482 q 515 678 557 617 q 397 739 474 739 q 297 693 333 739 q 261 586 261 647 l 261 586 z "},"ú":{"ha":833,"x_min":286,"x_max":547,"o":"m 547 94 q 506 11 547 42 q 417 -19 465 -19 q 327 11 368 -19 q 286 94 286 42 q 327 178 286 147 q 417 210 368 210 q 506 178 465 210 q 547 94 547 147 l 547 94 m 547 447 q 506 363 547 394 q 417 332 465 332 q 327 363 368 332 q 286 447 286 394 q 327 531 286 500 q 417 563 368 563 q 506 531 465 563 q 547 447 547 500 l 547 447 z "},"×":{"ha":833,"x_min":-11,"x_max":844,"o":"m 844 610 l 844 493 l 779 493 l 629 0 l 528 0 l 418 299 l 415 299 l 306 0 l 204 0 l 54 493 l -11 493 l -11 610 l 286 610 l 286 493 l 176 493 l 267 193 l 272 193 l 385 510 l 449 510 l 561 193 l 567 193 l 657 493 l 547 493 l 547 610 l 844 610 l 844 610 z "},"Ö":{"ha":833,"x_min":13,"x_max":821,"o":"m 13 493 l 13 610 l 356 610 l 356 493 l 264 493 l 417 169 l 569 493 l 478 493 l 478 610 l 821 610 l 821 493 l 711 493 l 467 0 l 367 0 l 122 493 l 13 493 l 13 493 z "},"¹":{"ha":833,"x_min":31,"x_max":804,"o":"m 421 428 l 568 664 l 488 664 l 488 781 l 804 781 l 804 664 l 707 664 l 482 301 l 482 117 l 642 117 l 642 0 l 197 0 l 197 117 l 357 117 l 357 300 l 128 664 l 31 664 l 31 781 l 351 781 l 351 664 l 271 664 l 421 428 l 421 428 z "},"¸":{"ha":833,"x_min":31,"x_max":803,"o":"m 419 503 l 546 664 l 475 664 l 475 781 l 778 781 l 778 664 l 694 664 l 492 410 l 719 117 l 803 117 l 803 0 l 475 0 l 475 117 l 567 117 l 417 314 l 263 117 l 374 117 l 374 0 l 31 0 l 31 117 l 114 117 l 344 408 l 142 664 l 58 664 l 58 781 l 374 781 l 374 664 l 294 664 l 419 503 l 419 503 z "},"¾":{"ha":833,"x_min":150,"x_max":683,"o":"m 250 346 l 150 414 l 417 856 l 683 414 l 583 346 l 417 622 l 250 346 l 250 346 z "},"û":{"ha":833,"x_min":194,"x_max":547,"o":"m 519 228 l 349 -140 l 194 -140 l 315 228 l 519 228 l 519 228 m 547 447 q 506 363 547 394 q 417 332 465 332 q 327 363 368 332 q 286 447 286 394 q 327 531 286 500 q 417 563 368 563 q 506 531 465 563 q 547 447 547 500 l 547 447 z "},"ý":{"ha":833,"x_min":113,"x_max":721,"o":"m 721 249 l 721 124 l 113 124 l 113 249 l 721 249 l 721 249 m 721 485 l 721 360 l 113 360 l 113 485 l 721 485 l 721 485 z "},"ÿ":{"ha":833,"x_min":150,"x_max":682,"o":"m 496 88 q 458 10 496 39 q 374 -19 419 -19 q 290 10 328 -19 q 251 88 251 39 q 290 165 251 136 q 374 194 328 194 q 458 165 419 194 q 496 88 496 136 l 496 88 m 439 349 l 439 271 l 314 271 l 314 440 q 491 492 429 463 q 553 569 553 521 q 513 654 553 626 q 424 688 472 682 q 410 688 417 688 q 396 689 403 689 q 334 682 364 689 q 275 664 304 675 l 275 572 l 150 572 l 150 753 q 248 784 206 772 q 331 801 290 796 q 363 805 347 804 q 396 806 379 806 q 607 733 532 806 q 682 567 682 661 q 606 424 682 475 q 439 349 531 372 l 439 349 z "},"¡":{"ha":833,"x_min":1,"x_max":832,"o":"m 79 117 l 314 664 l 138 664 l 138 781 l 474 781 l 754 117 l 832 117 l 832 0 l 500 0 l 500 117 l 622 117 l 571 236 l 260 236 l 208 117 l 331 117 l 331 0 l 1 0 l 1 117 l 79 117 l 79 117 m 415 603 l 310 353 l 522 353 l 415 603 l 415 603 z "},"á":{"ha":833,"x_min":294,"x_max":539,"o":"m 539 88 q 501 10 539 39 q 417 -19 463 -19 q 333 10 371 -19 q 294 88 294 39 q 333 165 294 136 q 417 194 371 194 q 501 165 463 194 q 539 88 539 136 l 539 88 m 503 794 l 476 271 l 357 271 l 331 794 l 503 794 l 503 794 z "},"é":{"ha":833,"x_min":207,"x_max":515,"o":"m 207 856 l 329 856 q 410 723 372 796 q 474 574 447 650 q 504 463 493 518 q 515 357 515 407 q 504 251 515 307 q 474 140 493 196 q 410 -8 447 64 q 329 -140 372 -81 l 207 -142 q 247 -68 228 -104 q 285 3 267 -32 q 354 176 326 89 q 382 357 382 264 q 354 538 382 450 q 285 711 326 625 q 247 783 267 747 q 207 856 228 819 l 207 856 z "},"ð":{"ha":833,"x_min":135,"x_max":699,"o":"m 135 421 q 136 475 135 447 q 140 532 138 503 q 214 754 154 653 q 417 856 274 856 q 619 754 560 856 q 693 532 679 653 q 697 475 696 503 q 699 421 699 447 q 697 360 699 392 q 692 299 696 329 q 617 80 676 179 q 417 -19 558 -19 q 216 80 275 -19 q 142 299 157 179 q 136 360 138 329 q 135 421 135 392 l 135 421 m 264 421 q 290 211 264 279 q 349 119 317 143 q 386 99 368 103 q 417 96 404 96 q 447 99 429 96 q 485 119 465 103 q 543 211 517 143 q 569 421 569 279 q 568 483 569 447 q 560 557 567 518 q 517 682 549 625 q 417 739 485 739 q 317 682 349 739 q 274 557 285 625 q 265 483 267 518 q 264 421 264 447 l 264 421 z "},"ñ":{"ha":833,"x_min":126,"x_max":735,"o":"m 126 729 l 424 856 l 501 856 l 501 117 l 735 117 l 735 0 l 143 0 l 143 117 l 376 117 l 376 707 l 176 621 l 126 729 l 126 729 z "},"‘":{"ha":833,"x_min":261,"x_max":572,"o":"m 451 413 l 261 413 l 433 781 l 572 781 l 451 413 l 451 413 z "},"õ":{"ha":833,"x_min":111,"x_max":710,"o":"m 165 835 l 671 835 l 671 718 l 286 718 l 286 528 q 336 544 310 538 q 390 554 363 551 q 403 555 397 554 q 417 556 410 556 q 625 475 540 556 q 710 265 710 394 q 708 234 710 250 q 703 201 706 218 q 610 49 683 118 q 401 -19 538 -19 q 340 -17 368 -19 q 285 -7 313 -14 q 206 15 247 0 q 111 49 165 29 l 156 161 q 203 142 179 151 q 249 125 226 132 q 318 107 283 114 q 390 100 353 100 q 526 139 472 100 q 581 265 581 178 q 531 389 581 343 q 408 435 482 435 q 317 417 361 435 q 232 367 272 400 l 165 403 l 165 835 l 165 835 z "},"±":{"ha":833,"x_min":44,"x_max":789,"o":"m 417 806 q 690 681 590 806 q 789 389 789 557 q 789 386 789 388 q 789 383 789 385 q 716 134 788 250 q 499 -6 644 18 l 499 -10 q 569 -35 543 -25 q 610 -46 594 -46 q 641 -39 621 -46 q 682 -19 661 -32 q 697 -10 689 -15 q 711 0 704 -6 l 789 -92 q 718 -136 750 -119 q 654 -158 686 -153 q 634 -162 644 -161 q 613 -162 624 -162 q 551 -154 578 -162 q 499 -135 524 -146 q 487 -129 493 -132 q 474 -125 481 -126 q 437 -112 456 -117 q 396 -107 418 -107 q 385 -107 390 -107 q 374 -108 379 -107 q 318 -122 349 -110 q 226 -169 288 -135 l 167 -74 q 190 -58 179 -65 q 210 -46 200 -51 q 223 -35 217 -40 q 235 -25 229 -31 q 252 -10 243 -18 q 271 7 261 -1 q 106 151 161 50 q 46 365 51 251 q 44 377 44 371 q 44 389 44 383 q 144 681 44 557 q 417 806 243 806 l 417 806 m 178 389 q 178 378 178 383 q 178 367 178 372 q 244 178 185 264 q 417 92 304 92 q 589 178 529 92 q 656 367 649 264 q 656 378 656 372 q 656 389 656 383 q 656 397 656 393 q 656 404 656 400 q 592 600 651 511 q 417 689 532 689 q 242 600 303 689 q 178 404 182 511 q 178 397 178 400 q 178 389 178 393 l 178 389 z "},"²":{"ha":833,"x_min":47,"x_max":818,"o":"m 721 117 l 818 117 l 818 0 l 635 0 q 603 71 618 38 q 572 135 588 104 q 492 260 533 210 q 397 331 451 311 l 283 331 l 283 117 l 403 117 l 403 0 l 47 0 l 47 117 l 158 117 l 158 664 l 47 664 l 47 781 l 476 781 q 614 746 565 781 q 685 669 663 711 q 709 603 704 635 q 714 563 714 572 q 674 435 714 488 q 588 363 635 383 q 577 359 582 361 q 567 356 572 357 q 619 299 593 338 q 669 217 646 260 q 697 163 685 189 q 721 117 710 138 l 721 117 m 283 664 l 283 447 l 428 447 q 541 477 497 447 q 585 561 585 507 q 583 581 585 569 q 578 604 582 592 q 544 645 568 626 q 471 664 521 664 l 283 664 l 283 664 z "},"”":{"ha":833,"x_min":113,"x_max":721,"o":"m 113 413 l 233 781 l 424 781 l 251 413 l 113 413 l 113 413 m 410 413 l 531 781 l 721 781 l 549 413 l 410 413 l 410 413 z "},"":{"ha":833,"x_min":153,"x_max":681,"o":"m 153 421 l 681 421 l 681 296 l 153 296 l 153 421 l 153 421 z "},"ï":{"ha":833,"x_min":146,"x_max":689,"o":"m 578 869 l 689 822 l 257 -107 l 146 -57 l 578 869 l 578 869 z "},"î":{"ha":833,"x_min":286,"x_max":547,"o":"m 286 94 q 327 178 286 147 q 417 210 368 210 q 506 178 465 210 q 547 94 547 147 q 506 11 547 42 q 417 -19 465 -19 q 327 11 368 -19 q 286 94 286 42 l 286 94 z "},"":{"ha":833,"x_min":0,"x_max":0,"o":""},"º":{"ha":833,"x_min":100,"x_max":735,"o":"m 107 781 l 704 781 l 704 690 l 267 117 l 614 117 l 614 325 l 735 325 l 735 0 l 100 0 l 100 100 l 531 664 l 228 664 l 228 476 l 107 476 l 107 781 l 107 781 z "},"«":{"ha":833,"x_min":50,"x_max":811,"o":"m 286 442 l 521 664 l 454 664 l 454 781 l 774 781 l 774 664 l 696 664 l 453 438 q 600 316 539 404 q 706 129 661 228 q 708 122 707 125 q 711 117 710 119 l 811 117 l 811 0 l 619 0 q 513 227 579 129 q 360 350 446 325 l 286 281 l 286 117 l 397 117 l 397 0 l 50 0 l 50 117 l 161 117 l 161 664 l 50 664 l 50 781 l 397 781 l 397 664 l 286 664 l 286 442 l 286 442 z "},"¬":{"ha":833,"x_min":68,"x_max":789,"o":"m 789 375 l 769 0 l 68 0 l 68 117 l 200 117 l 200 664 l 68 664 l 68 781 l 490 781 l 490 664 l 325 664 l 325 117 l 650 117 l 667 379 l 789 375 l 789 375 z "},"":{"ha":833,"x_min":294,"x_max":539,"o":"m 539 88 q 501 10 539 39 q 417 -19 463 -19 q 333 10 371 -19 q 294 88 294 39 q 333 165 294 136 q 417 194 371 194 q 501 165 463 194 q 539 88 539 136 l 539 88 m 503 794 l 476 271 l 357 271 l 331 794 l 503 794 l 503 794 z "},"‚":{"ha":833,"x_min":113,"x_max":721,"o":"m 303 413 l 113 413 l 285 781 l 424 781 l 303 413 l 303 413 m 600 413 l 410 413 l 582 781 l 721 781 l 600 413 l 600 413 z "},"ô":{"ha":833,"x_min":88,"x_max":690,"o":"m 88 299 l 431 856 l 569 856 l 569 306 l 690 306 l 690 189 l 569 189 l 569 117 l 690 117 l 690 0 l 265 0 l 265 117 l 444 117 l 444 189 l 88 189 l 88 299 l 88 299 m 444 306 l 444 692 l 442 692 l 232 306 l 444 306 l 444 306 z "},"":{"ha":833,"x_min":286,"x_max":547,"o":"m 286 94 q 327 178 286 147 q 417 210 368 210 q 506 178 465 210 q 547 94 547 147 q 506 11 547 42 q 417 -19 465 -19 q 327 11 368 -19 q 286 94 286 42 l 286 94 z "}," ":{"ha":833,"x_min":36,"x_max":797,"o":"m 797 231 l 593 231 l 593 293 l 590 293 q 585 287 588 290 q 581 281 583 283 q 523 239 560 258 q 447 218 486 219 q 443 218 444 218 q 440 218 442 218 q 313 254 360 218 q 265 365 265 290 q 346 512 265 463 q 522 574 426 561 q 558 576 540 575 q 593 578 576 578 l 593 640 q 542 715 593 692 q 428 739 492 739 q 232 663 303 739 q 161 404 161 586 q 223 172 161 247 q 372 96 285 96 q 455 103 403 96 q 576 149 507 110 l 593 42 q 450 -11 500 -3 q 369 -19 400 -19 q 132 83 228 -19 q 36 404 36 186 q 134 744 36 632 q 433 856 232 856 q 647 803 576 856 q 718 664 718 751 l 718 347 l 797 347 l 797 231 l 797 231 m 390 371 q 403 332 390 343 q 442 321 417 321 q 532 365 490 321 q 593 475 574 410 q 481 455 528 475 q 411 411 435 435 q 396 390 401 400 q 390 371 390 379 l 390 371 z "},"°":{"ha":833,"x_min":81,"x_max":763,"o":"m 192 117 l 192 664 l 81 664 l 81 781 l 483 781 q 684 705 606 781 q 763 529 763 629 q 758 483 763 508 q 743 433 754 458 q 655 330 719 376 q 461 283 590 283 l 317 283 l 317 117 l 513 117 l 513 0 l 81 0 l 81 117 l 192 117 l 192 117 m 317 664 l 317 400 l 433 400 q 588 433 542 400 q 633 529 633 465 q 603 613 633 583 q 538 654 574 642 q 507 662 522 660 q 479 664 492 664 l 317 664 l 317 664 z "},"¢":{"ha":833,"x_min":56,"x_max":782,"o":"m 167 117 l 167 664 l 56 664 l 56 781 l 486 781 q 663 719 590 781 q 735 568 735 658 q 716 482 735 521 q 661 414 697 443 q 750 338 718 388 q 782 224 782 288 q 708 67 782 133 q 496 0 635 0 l 56 0 l 56 117 l 167 117 l 167 117 m 292 347 l 292 117 l 494 117 q 523 118 507 117 q 554 124 539 119 q 622 156 592 132 q 653 228 653 179 q 653 235 653 232 q 651 242 653 239 q 601 315 647 282 q 421 347 554 347 l 292 347 l 292 347 m 292 664 l 292 464 l 471 464 q 566 493 532 464 q 604 557 600 522 q 606 563 606 560 q 606 568 606 565 q 574 633 606 611 q 504 661 543 656 q 489 663 497 663 q 474 664 481 664 l 292 664 l 292 664 z "},"¤":{"ha":833,"x_min":56,"x_max":811,"o":"m 56 664 l 56 781 l 471 781 q 723 672 644 781 q 810 435 801 564 q 811 418 811 426 q 811 401 811 410 q 713 106 811 197 q 494 3 614 14 q 474 1 485 1 q 453 0 464 0 l 56 0 l 56 117 l 167 117 l 167 664 l 56 664 l 56 664 m 292 664 l 292 117 l 446 117 q 612 184 546 117 q 678 403 678 251 q 632 581 678 522 q 531 657 586 640 q 504 662 517 660 q 479 664 492 664 l 292 664 l 292 664 z "},"à":{"ha":833,"x_min":0,"x_max":0,"o":""},"¥":{"ha":833,"x_min":56,"x_max":757,"o":"m 565 558 l 565 253 l 449 253 l 449 347 l 292 347 l 292 117 l 632 117 l 640 293 l 757 293 l 757 0 l 56 0 l 56 117 l 167 117 l 167 664 l 56 664 l 56 781 l 743 781 l 751 489 l 632 489 l 621 664 l 292 664 l 292 464 l 449 464 l 449 558 l 565 558 l 565 558 z "},"£":{"ha":833,"x_min":44,"x_max":769,"o":"m 694 194 l 769 103 q 612 10 693 44 q 435 -24 531 -24 q 149 99 254 -24 q 44 397 44 222 q 151 686 44 567 q 431 806 257 806 q 537 790 488 806 q 633 744 586 775 l 640 792 l 760 767 q 758 761 758 764 q 757 756 757 758 q 744 688 749 721 q 739 631 739 654 q 739 620 739 625 q 739 611 739 615 q 747 555 740 583 q 764 492 753 526 l 639 465 l 629 540 q 590 625 622 593 q 519 672 557 657 q 476 685 497 681 q 440 689 456 689 q 248 606 318 689 q 178 400 178 524 q 240 186 178 276 q 433 96 303 96 q 455 97 444 96 q 476 99 465 97 q 574 126 524 104 q 694 194 625 149 l 694 194 z "},"å":{"ha":833,"x_min":7,"x_max":826,"o":"m 826 172 q 762 33 826 86 q 615 -19 697 -19 q 469 33 533 -19 q 404 172 404 86 q 469 312 404 258 q 615 365 533 365 q 762 312 697 365 q 826 172 826 258 l 826 172 m 719 172 q 689 244 719 217 q 615 272 658 272 q 542 244 572 272 q 511 172 511 217 q 542 101 511 129 q 615 72 572 72 q 689 101 658 72 q 719 172 719 129 l 719 172 m 679 653 l 732 579 l 151 181 l 99 254 l 679 653 l 679 653 m 429 663 q 365 523 429 576 q 218 469 300 469 q 72 523 136 469 q 7 663 7 576 q 72 802 7 749 q 218 856 136 856 q 365 802 300 856 q 429 663 429 749 l 429 663 m 322 663 q 292 735 322 707 q 218 763 261 763 q 144 735 175 763 q 114 663 114 707 q 144 591 114 619 q 218 563 175 563 q 292 591 261 563 q 322 663 322 619 l 322 663 z "},"¦":{"ha":833,"x_min":75,"x_max":771,"o":"m 486 117 l 486 0 l 75 0 l 75 117 l 186 117 l 186 664 l 75 664 l 75 781 l 763 781 l 771 489 l 651 489 l 640 664 l 311 664 l 311 464 l 468 464 l 468 558 l 585 558 l 585 253 l 468 253 l 468 347 l 311 347 l 311 117 l 486 117 l 486 117 z "},"§":{"ha":833,"x_min":44,"x_max":811,"o":"m 622 132 l 622 257 l 424 257 l 424 374 l 811 374 l 811 257 l 747 257 l 747 50 l 743 49 q 596 -3 672 18 q 435 -24 519 -24 q 149 99 254 -24 q 44 397 44 222 q 151 686 44 567 q 431 806 257 806 q 537 790 488 806 q 633 744 586 775 l 640 792 l 760 767 q 758 761 758 764 q 757 756 757 758 q 744 688 749 721 q 739 631 739 654 q 739 620 739 625 q 739 611 739 615 q 747 555 740 583 q 764 492 753 526 l 639 465 l 629 540 q 590 625 622 593 q 519 672 557 657 q 476 685 497 681 q 440 689 456 689 q 248 606 318 689 q 178 400 178 524 q 240 186 178 276 q 433 96 303 96 q 535 107 490 96 q 622 132 581 118 l 622 132 z "},"æ":{"ha":833,"x_min":64,"x_max":744,"o":"m 574 664 l 499 569 q 428 617 456 603 q 375 636 400 632 q 361 637 368 636 q 347 638 354 638 q 335 636 342 638 q 321 633 328 635 q 288 615 303 628 q 272 582 272 601 q 284 543 272 567 q 324 479 296 519 l 468 272 l 522 418 l 719 418 l 719 301 l 611 301 l 546 161 l 579 117 l 744 117 l 744 0 l 513 0 l 468 63 q 388 -1 432 18 q 292 -19 343 -19 q 126 44 188 -19 q 64 192 64 107 q 105 335 64 275 q 211 426 146 396 q 167 499 188 461 q 147 579 147 536 q 209 708 147 661 q 347 754 271 754 q 429 742 390 754 q 506 710 468 731 q 540 688 522 700 q 574 664 557 676 l 574 664 m 279 331 q 219 281 244 313 q 193 196 193 249 q 221 124 193 153 q 292 96 249 96 q 351 112 325 96 q 399 160 376 128 l 279 331 l 279 331 z "},"ç":{"ha":833,"x_min":329,"x_max":504,"o":"m 354 413 l 329 781 l 504 781 l 479 413 l 354 413 l 354 413 z "},"ß":{"ha":833,"x_min":113,"x_max":722,"o":"m 649 426 l 722 347 q 696 306 708 325 q 669 271 683 286 q 609 219 640 236 q 540 203 578 203 q 491 210 518 203 q 428 232 464 218 l 376 253 q 372 255 375 254 q 368 256 369 256 q 324 272 344 265 q 289 279 303 279 q 263 272 275 279 q 238 253 250 265 q 213 219 225 239 q 186 172 200 199 l 113 253 q 194 363 151 321 q 300 404 236 404 q 334 401 317 404 q 369 393 351 399 q 403 381 386 388 q 438 367 421 374 q 506 339 476 350 q 549 328 536 328 q 560 330 554 328 q 574 335 567 332 q 609 366 592 344 q 640 410 626 388 q 645 418 643 414 q 649 426 647 422 l 649 426 z "},"è":{"ha":833,"x_min":318,"x_max":626,"o":"m 626 -142 l 504 -142 q 424 -8 461 -81 q 360 140 386 64 q 329 251 340 196 q 318 357 318 307 q 329 463 318 407 q 360 574 340 518 q 424 723 386 650 q 504 856 461 796 l 626 856 q 586 783 606 819 q 549 711 567 747 q 479 538 507 625 q 451 357 451 450 q 479 176 451 264 q 549 3 507 89 q 586 -68 567 -32 q 626 -140 606 -104 l 626 -142 z "},"í":{"ha":833,"x_min":153,"x_max":681,"o":"m 153 421 l 681 421 l 681 296 l 153 296 l 153 421 l 153 421 z "},"®":{"ha":833,"x_min":25,"x_max":833,"o":"m 611 208 l 611 664 l 472 664 l 472 781 l 833 781 l 833 664 l 736 664 l 736 -17 l 607 -17 l 250 565 l 247 565 l 247 117 l 392 117 l 392 0 l 25 0 l 25 117 l 122 117 l 122 664 l 25 664 l 25 781 l 258 781 l 608 208 l 611 208 l 611 208 z "},"­":{"ha":833,"x_min":4,"x_max":829,"o":"m 4 664 l 4 781 l 265 781 l 417 372 l 568 781 l 829 781 l 829 664 l 732 664 l 732 117 l 829 117 l 829 0 l 482 0 l 482 117 l 607 117 l 607 585 l 604 585 l 454 178 l 379 178 l 229 585 l 226 585 l 226 117 l 351 117 l 351 0 l 4 0 l 4 117 l 101 117 l 101 664 l 4 664 l 4 664 z "},"":{"ha":833,"x_min":135,"x_max":742,"o":"m 742 304 l 203 -21 l 135 79 l 508 304 l 135 529 l 203 629 l 742 304 l 742 304 z "},"":{"ha":833,"x_min":135,"x_max":699,"o":"m 135 421 q 136 475 135 447 q 140 532 138 503 q 214 754 154 653 q 417 856 274 856 q 619 754 560 856 q 693 532 679 653 q 697 475 696 503 q 699 421 699 447 q 697 360 699 392 q 692 299 696 329 q 617 80 676 179 q 417 -19 558 -19 q 216 80 275 -19 q 142 299 157 179 q 136 360 138 329 q 135 421 135 392 l 135 421 m 264 421 q 290 211 264 279 q 349 119 317 143 q 386 99 368 103 q 417 96 404 96 q 447 99 429 96 q 485 119 465 103 q 543 211 517 143 q 569 421 569 279 q 568 483 569 447 q 560 557 567 518 q 517 682 549 625 q 417 739 485 739 q 317 682 349 739 q 274 557 285 625 q 265 483 267 518 q 264 421 264 447 l 264 421 z "},"":{"ha":833,"x_min":146,"x_max":689,"o":"m 578 869 l 689 822 l 257 -107 l 146 -57 l 578 869 l 578 869 z "},"“":{"ha":833,"x_min":113,"x_max":721,"o":"m 303 413 l 113 413 l 285 781 l 424 781 l 303 413 l 303 413 m 600 413 l 410 413 l 582 781 l 721 781 l 600 413 l 600 413 z "},"":{"ha":833,"x_min":113,"x_max":721,"o":"m 721 249 l 721 124 l 113 124 l 113 249 l 721 249 l 721 249 m 721 485 l 721 360 l 113 360 l 113 485 l 721 485 l 721 485 z "},"—":{"ha":833,"x_min":0,"x_max":833,"o":"m 0 421 l 833 421 l 833 296 l 0 296 l 0 421 l 0 421 z "},"–":{"ha":833,"x_min":104,"x_max":729,"o":"m 104 421 l 729 421 l 729 296 l 104 296 l 104 421 l 104 421 z "},"™":{"ha":833,"x_min":0,"x_max":0,"o":""},"˜":{"ha":833,"x_min":143,"x_max":690,"o":"m 215 671 l 143 713 l 353 913 l 481 913 l 690 713 l 618 671 l 417 810 l 215 671 l 215 671 z "},"š":{"ha":833,"x_min":108,"x_max":729,"o":"m 579 638 l 697 621 q 695 610 696 615 q 693 599 694 604 q 686 556 689 578 q 683 515 683 535 q 685 488 683 503 q 689 457 686 472 q 697 422 692 439 q 708 392 701 404 l 581 376 l 574 426 q 569 441 572 433 q 561 457 567 449 q 508 497 546 479 q 403 514 471 514 q 374 511 392 514 q 339 503 357 508 q 283 477 308 493 q 257 440 257 461 q 306 385 257 401 q 475 361 356 368 q 651 324 572 356 q 729 168 729 292 q 722 130 729 153 q 694 82 714 107 q 604 12 665 43 q 438 -19 543 -19 q 370 -15 401 -19 q 307 -3 339 -11 q 274 8 290 1 q 239 22 257 14 l 235 -24 l 108 -7 q 117 28 114 13 q 124 57 121 43 q 126 81 125 68 q 128 108 128 93 q 128 116 128 113 q 128 124 128 119 q 122 179 126 151 q 108 240 117 207 l 232 256 l 244 194 q 249 180 246 188 q 257 164 253 172 q 315 117 274 139 q 429 96 356 96 q 556 122 511 96 q 600 181 600 147 q 567 227 600 215 q 436 243 535 239 q 390 247 414 244 q 342 251 365 249 q 194 306 261 265 q 128 440 128 346 q 132 474 128 456 q 147 511 136 493 q 232 593 171 556 q 407 631 293 631 q 426 630 417 631 q 446 629 436 629 q 504 618 474 626 q 574 594 535 610 l 579 638 l 579 638 m 618 926 l 690 885 l 481 685 l 353 685 l 143 885 l 215 926 l 417 788 l 618 926 l 618 926 z "},"›":{"ha":833,"x_min":196,"x_max":638,"o":"m 250 97 l 196 161 l 447 358 l 196 556 l 250 619 l 638 358 l 250 97 l 250 97 z "},"ƒ":{"ha":833,"x_min":-26,"x_max":781,"o":"m 221 589 l 360 589 l 374 664 q 442 799 388 743 q 643 856 496 856 q 682 854 658 856 q 731 851 706 853 q 757 849 744 850 q 781 846 769 847 l 706 724 q 699 726 703 725 q 692 726 694 726 q 681 728 686 728 q 672 731 676 729 q 638 737 654 735 q 610 739 622 739 q 534 721 560 739 q 503 678 508 703 l 485 589 l 629 589 l 604 472 l 464 472 l 379 8 q 297 -135 361 -90 q 114 -181 232 -181 q 78 -179 103 -181 q 28 -176 54 -178 q -1 -174 13 -175 q -26 -171 -14 -172 l 49 -50 q 55 -51 51 -50 q 63 -51 58 -51 q 71 -53 67 -53 q 81 -56 75 -54 q 113 -61 97 -58 q 139 -64 129 -64 q 224 -43 201 -64 q 251 0 246 -22 q 253 9 253 4 q 256 18 254 14 l 339 472 l 197 472 l 221 589 l 221 589 z "},"„":{"ha":833,"x_min":113,"x_max":721,"o":"m 303 413 l 113 413 l 285 781 l 424 781 l 303 413 l 303 413 m 600 413 l 410 413 l 582 781 l 721 781 l 600 413 l 600 413 z "},"ë":{"ha":833,"x_min":113,"x_max":721,"o":"m 354 610 l 479 610 l 479 367 l 721 367 l 721 242 l 479 242 l 479 0 l 354 0 l 354 242 l 113 242 l 113 367 l 354 367 l 354 610 l 354 610 z "},"ì":{"ha":833,"x_min":194,"x_max":519,"o":"m 315 228 l 519 228 l 349 -140 l 194 -140 l 315 228 l 315 228 z "},"…":{"ha":833,"x_min":50,"x_max":783,"o":"m 50 56 q 78 113 50 92 q 139 133 106 133 q 200 113 172 133 q 228 56 228 92 q 200 1 228 21 q 139 -19 172 -19 q 78 1 106 -19 q 50 56 50 21 l 50 56 m 328 56 q 356 113 328 92 q 417 133 383 133 q 478 113 450 133 q 506 56 506 92 q 478 1 506 21 q 417 -19 450 -19 q 356 1 383 -19 q 328 56 328 21 l 328 56 m 606 56 q 633 113 606 92 q 694 133 661 133 q 756 113 728 133 q 783 56 783 92 q 756 1 783 21 q 694 -19 728 -19 q 633 1 661 -19 q 606 56 606 21 l 606 56 z "},"†":{"ha":833,"x_min":161,"x_max":672,"o":"m 354 806 l 479 806 l 479 585 l 672 585 l 672 468 l 479 468 l 479 -97 l 354 -97 l 354 468 l 161 468 l 161 585 l 354 585 l 354 806 l 354 806 z "},"‡":{"ha":833,"x_min":161,"x_max":672,"o":"m 478 -97 l 353 -97 l 353 118 l 161 118 l 161 235 l 353 235 l 353 474 l 161 474 l 161 590 l 353 590 l 353 806 l 478 806 l 478 590 l 672 590 l 672 474 l 478 474 l 478 235 l 672 235 l 672 118 l 478 118 l 478 -97 l 478 -97 z "},"ˆ":{"ha":833,"x_min":124,"x_max":711,"o":"m 599 883 l 711 850 l 700 821 q 632 728 679 767 q 518 689 585 689 q 449 701 479 689 q 393 732 418 714 q 337 768 353 760 q 310 776 321 776 q 290 772 300 776 q 272 758 281 768 q 253 730 263 747 q 233 685 244 713 l 124 722 l 146 776 q 158 797 150 785 q 176 819 165 808 q 231 860 197 842 q 311 879 265 879 q 379 866 349 879 q 432 836 410 853 q 491 799 474 807 q 521 792 508 792 q 567 819 550 792 q 599 883 585 846 l 599 883 z "},"‹":{"ha":833,"x_min":196,"x_max":638,"o":"m 638 161 l 583 97 l 196 358 l 583 619 l 638 556 l 386 358 l 638 161 l 638 161 z "},"•":{"ha":833,"x_min":208,"x_max":625,"o":"m 625 390 q 569 258 625 308 q 444 199 513 208 q 431 198 438 199 q 417 197 424 197 q 403 198 410 197 q 389 199 396 199 q 265 258 321 208 q 208 390 208 308 q 265 521 208 469 q 389 582 321 572 q 403 583 396 582 q 417 583 410 583 q 431 583 424 583 q 444 582 438 582 q 569 521 513 572 q 625 390 625 469 l 625 390 z "},"œ":{"ha":833,"x_min":-10,"x_max":835,"o":"m 790 131 l 835 24 q 722 -8 778 4 q 621 -19 667 -19 q 508 1 557 -19 q 419 72 458 21 q 376 28 399 46 q 332 1 354 11 q 277 -15 304 -11 q 224 -19 250 -19 q 53 67 107 -19 q -8 256 0 153 q -10 275 -10 265 q -10 294 -10 285 q 48 528 -10 425 q 254 631 106 631 q 353 613 307 631 q 436 558 400 594 q 508 612 467 593 q 596 631 550 631 q 760 550 706 631 q 821 374 814 469 q 822 359 822 367 q 822 344 822 351 q 821 313 822 331 q 817 276 819 296 q 815 267 815 272 q 814 258 814 263 l 481 258 q 483 235 481 247 q 488 211 485 224 q 534 132 500 168 q 618 96 568 96 q 703 106 660 96 q 790 131 747 117 l 790 131 m 369 294 q 339 479 369 444 q 257 514 308 514 q 160 473 199 514 q 122 294 122 432 q 148 148 122 188 q 204 100 174 108 q 224 97 214 97 q 243 96 235 96 q 335 143 310 96 q 367 247 361 190 q 369 272 368 260 q 369 294 369 283 l 369 294 m 481 369 l 697 369 q 696 395 697 381 q 690 424 694 410 q 662 485 683 457 q 601 514 640 514 q 522 478 551 514 q 483 399 492 442 q 481 384 482 392 q 481 369 481 376 l 481 369 z "},"¯":{"ha":833,"x_min":44,"x_max":789,"o":"m 44 389 q 144 681 44 557 q 417 806 243 806 q 690 681 590 806 q 789 389 789 557 q 690 100 789 224 q 417 -24 590 -24 q 144 100 243 -24 q 44 389 44 224 l 44 389 m 178 389 q 178 378 178 383 q 178 367 178 372 q 244 178 185 264 q 417 92 304 92 q 589 178 529 92 q 656 367 649 264 q 656 378 656 372 q 656 389 656 383 q 656 397 656 393 q 656 404 656 400 q 592 600 651 511 q 417 689 532 689 q 242 600 303 689 q 178 404 182 511 q 178 397 178 400 q 178 389 178 393 l 178 389 z "},"ã":{"ha":833,"x_min":92,"x_max":742,"o":"m 360 617 l 496 617 l 513 904 l 633 904 l 617 617 l 742 617 l 742 500 l 610 500 l 600 342 l 742 342 l 742 225 l 593 225 l 576 -62 l 456 -62 l 472 225 l 339 225 l 322 -62 l 201 -62 l 218 225 l 92 225 l 92 342 l 224 342 l 233 500 l 92 500 l 92 617 l 239 617 l 256 904 l 376 904 l 360 617 l 360 617 m 489 500 l 354 500 l 344 342 l 479 342 l 489 500 l 489 500 z "},"ä":{"ha":833,"x_min":128,"x_max":707,"o":"m 357 925 l 482 925 l 482 767 q 499 763 488 767 q 522 754 510 760 q 526 752 524 753 q 529 751 528 751 q 547 744 539 747 q 561 738 556 740 q 566 753 564 746 q 569 771 568 761 q 572 782 571 776 q 574 793 572 788 l 696 774 q 694 769 694 771 q 692 764 693 767 q 689 756 690 760 q 686 749 688 753 q 671 699 678 724 q 664 651 664 674 q 666 623 664 639 q 672 590 668 607 q 676 572 674 581 q 681 554 678 563 l 564 533 l 551 592 q 524 624 547 611 q 475 643 501 636 q 444 649 460 647 q 418 650 429 650 q 397 649 408 650 q 375 646 386 649 q 305 619 336 640 q 274 556 274 599 q 285 511 274 528 q 332 481 297 494 q 376 464 350 472 q 439 446 403 456 q 444 444 442 444 q 450 443 447 443 q 630 374 553 414 q 707 229 707 333 q 706 208 707 219 q 701 186 704 197 q 638 84 689 132 q 482 18 586 36 l 482 -175 l 357 -175 l 357 18 q 335 20 351 18 q 300 28 318 22 q 274 35 286 31 q 253 43 261 39 l 235 0 l 128 33 q 145 85 139 61 q 151 129 151 110 q 145 183 151 151 q 131 249 139 214 l 244 271 l 264 196 q 303 153 271 171 q 408 135 336 135 q 441 136 422 135 q 479 142 460 138 q 547 168 517 149 q 578 225 578 188 q 544 284 578 265 q 460 317 511 303 q 435 322 447 319 q 408 329 422 325 q 381 336 394 332 q 354 343 368 340 q 210 410 275 367 q 144 549 144 453 q 207 697 144 640 q 346 765 269 753 q 351 766 349 765 q 357 767 354 767 l 357 925 l 357 925 z "},"ö":{"ha":833,"x_min":139,"x_max":710,"o":"m 710 856 l 710 739 l 608 739 q 389 684 464 739 q 282 485 314 629 q 358 521 317 508 q 442 533 399 533 q 627 449 553 533 q 701 257 701 365 q 626 63 701 144 q 436 -19 551 -19 q 231 74 324 -19 q 139 363 139 168 q 145 458 139 403 q 171 569 151 513 q 298 766 206 676 q 576 856 390 856 l 710 856 l 710 856 m 572 249 q 537 363 572 313 q 438 413 501 413 q 342 384 388 413 q 272 296 297 356 q 318 158 276 219 q 436 96 360 96 q 536 142 500 96 q 572 249 572 189 l 572 249 z "},"÷":{"ha":833,"x_min":90,"x_max":672,"o":"m 90 835 l 672 835 l 672 744 l 406 0 l 265 0 l 535 718 l 211 718 l 211 601 l 90 601 l 90 835 l 90 835 z "},"ø":{"ha":833,"x_min":129,"x_max":704,"o":"m 704 233 q 702 202 704 218 q 694 171 700 186 q 604 40 674 99 q 417 -19 535 -19 q 229 40 299 -19 q 139 171 160 99 q 131 202 133 186 q 129 233 129 218 q 161 344 129 290 q 240 428 193 397 q 171 511 197 461 q 144 617 144 561 q 230 791 144 726 q 417 856 315 856 q 604 791 519 856 q 689 617 689 726 q 663 511 689 561 q 593 428 638 461 q 673 344 642 397 q 704 233 704 290 l 704 233 m 258 228 q 298 141 258 175 q 386 99 338 107 q 402 97 394 97 q 417 96 410 96 q 431 97 424 96 q 447 99 439 97 q 535 141 496 107 q 575 228 575 175 q 526 328 575 293 q 417 363 476 363 q 308 328 357 363 q 258 228 258 293 l 258 228 m 274 615 q 318 521 274 558 q 417 483 363 483 q 515 521 471 483 q 560 615 560 558 q 516 707 560 675 q 417 739 472 739 q 317 707 361 739 q 274 615 274 675 l 274 615 z "},"ü":{"ha":833,"x_min":92,"x_max":699,"o":"m 92 304 l 631 629 l 699 529 l 325 304 l 699 79 l 631 -21 l 92 304 l 92 304 z "},"þ":{"ha":833,"x_min":135,"x_max":742,"o":"m 742 304 l 203 -21 l 135 79 l 508 304 l 135 529 l 203 629 l 742 304 l 742 304 z "},"ā":{"ha":833,"x_min":0,"x_max":0,"o":""}}}
